<?xml version="1.0" encoding="UTF-8" standalone="no"?>
<!-- Created with Inkscape (http://www.inkscape.org/) -->

<svg
   width="117.1558mm"
   height="110.76082mm"
   viewBox="0 0 117.1558 110.76082"
   version="1.1"
   id="svg1"
   xml:space="preserve"
   xmlns:inkscape="http://www.inkscape.org/namespaces/inkscape"
   xmlns:sodipodi="http://sodipodi.sourceforge.net/DTD/sodipodi-0.dtd"
   xmlns="http://www.w3.org/2000/svg"
   xmlns:svg="http://www.w3.org/2000/svg"><sodipodi:namedview
     id="namedview1"
     pagecolor="#ffffff"
     bordercolor="#000000"
     borderopacity="0.25"
     inkscape:showpageshadow="2"
     inkscape:pageopacity="0.0"
     inkscape:pagecheckerboard="0"
     inkscape:deskcolor="#d1d1d1"
     inkscape:document-units="mm" /><defs
     id="defs1"><filter
       style="color-interpolation-filters:sRGB"
       inkscape:label="Invert"
       id="filter78"
       x="-0.0011965544"
       y="-0.0038715823"
       width="1.0011966"
       height="1.0077432"><feColorMatrix
         type="hueRotate"
         values="180"
         result="color1"
         id="feColorMatrix77" /><feColorMatrix
         values="-1 0 0 0 1 0 -1 0 0 1 0 0 -1 0 1 -0.21 -0.72 -0.07 1.8 0 "
         result="fbSourceGraphic"
         id="feColorMatrix78" /><feColorMatrix
         result="fbSourceGraphicAlpha"
         in="fbSourceGraphic"
         values="0 0 0 -1 0 0 0 0 -1 0 0 0 0 -1 0 0 0 0 1 0"
         id="feColorMatrix79" /><feColorMatrix
         id="feColorMatrix80"
         type="hueRotate"
         values="180"
         result="color1"
         in="fbSourceGraphic" /><feColorMatrix
         id="feColorMatrix81"
         values="-1 0 0 0 1 0 -1 0 0 1 0 0 -1 0 1 -0.21 -0.72 -0.07 1.8 0 "
         result="fbSourceGraphic" /><feColorMatrix
         result="fbSourceGraphicAlpha"
         in="fbSourceGraphic"
         values="0 0 0 -1 0 0 0 0 -1 0 0 0 0 -1 0 0 0 0 1 0"
         id="feColorMatrix82" /><feColorMatrix
         id="feColorMatrix83"
         type="hueRotate"
         values="180"
         result="color1"
         in="fbSourceGraphic" /><feColorMatrix
         id="feColorMatrix84"
         values="-1 0 0 0 1 0 -1 0 0 1 0 0 -1 0 1 -0.21 -0.72 -0.07 1.8 0 "
         result="color2" /></filter><clipPath
       clipPathUnits="userSpaceOnUse"
       id="clipPath84"><path
         style="fill:#0000ff;stroke:#000080;stroke-width:1;stroke-linecap:round;stroke-linejoin:round;stroke-miterlimit:3.8;paint-order:stroke fill markers"
         d="M 62.888824,67.306463 H 176.97504 V 178.06728 H 59.81924 Z"
         id="path85" /></clipPath></defs><g
     inkscape:label="Camada 1"
     inkscape:groupmode="layer"
     id="layer1"
     transform="translate(-7.9918248,-11.100351)"><g
       id="g63"
       style="filter:url(#filter78)"
       transform="translate(-51.827415,-56.206112)"
       clip-path="url(#clipPath84)"><rect
         style="fill:#ffffff;stroke:#ffffff;stroke-width:1;stroke-linecap:round;stroke-linejoin:round;stroke-miterlimit:3.8;paint-order:stroke fill markers"
         id="rect62"
         width="122.63459"
         height="129.14616"
         x="56.795372"
         y="57.88063"
         ry="0.36175397" /><path
         style="fill:#000000;stroke:none"
         d="M 56.443818,122.45374 V 60.242246 h 62.030602 62.03061 v 62.211494 62.21149 H 118.47442 56.443818 Z m 59.577252,47.96005 c 0.81009,-0.74363 -0.28151,-2.11306 -1.16151,-1.45713 -0.54655,0.40739 -0.51116,1.28404 0.0662,1.63994 0.38182,0.23536 0.69708,0.18274 1.09532,-0.18281 z m 5.00748,0.27816 c 0.23874,0 0.59586,-0.50382 0.59586,-0.84061 0,-0.52174 -0.1102,-0.72706 -0.49825,-0.92831 -0.864,-0.4481 -1.67213,0.51571 -1.18998,1.41924 0.14505,0.27181 0.57547,0.48332 0.81978,0.40283 0.0887,-0.0292 0.21141,-0.0532 0.27259,-0.0532 z m -10.48417,-0.41975 c 0.85598,-0.85849 -0.33376,-2.20769 -1.26384,-1.43323 -0.42316,0.35236 -0.45306,0.89341 -0.0743,1.34483 0.40649,0.48449 0.91005,0.51776 1.33816,0.0884 z m 16.37269,0.034 c 0.76918,-0.72471 -0.10447,-1.99044 -1.10743,-1.60444 -0.2146,0.0826 -0.55062,0.65744 -0.55062,0.94197 0,0.0984 0.14114,0.3472 0.31365,0.55282 0.38414,0.45784 0.92778,0.50218 1.3444,0.10965 z m -22.06362,-0.53793 c 0.8564,-0.40758 0.6077,-1.64427 -0.3471,-1.72607 -0.58607,-0.0502 -0.93381,0.29603 -0.93381,0.92977 0,0.52206 0.28348,0.85731 0.82977,0.98129 0.0232,0.005 0.22626,-0.078 0.45114,-0.18499 z m 27.53432,6e-5 c 0.38792,-0.2725 0.52172,-0.69006 0.3653,-1.14007 -0.33949,-0.97672 -1.79984,-0.68256 -1.79984,0.36254 0,0.45233 0.46847,0.97206 0.87619,0.97206 0.15479,0 0.40605,-0.0875 0.55835,-0.19453 z m -32.575711,-1.28647 c 0.551191,-0.59335 0.13923,-1.55667 -0.66569,-1.55667 -0.59475,0 -1.05715,0.70213 -0.79094,1.201 0.35675,0.66853 1.01639,0.8296 1.45663,0.35567 z m 37.877351,0.17294 c 0.19925,-0.13344 0.41188,-0.58597 0.41188,-0.8766 0,-0.35538 -0.53009,-0.85301 -0.90865,-0.85301 -0.41315,0 -0.90865,0.50622 -0.90865,0.92832 0,0.64375 0.88619,1.149 1.40542,0.80129 z m -45.821151,-2.16483 c 0.16642,-0.43493 0.0627,-0.65446 -0.452,-0.95699 -0.63712,-0.37446 -0.8777,-0.38773 -1.0536,-0.0581 -0.15955,0.299 -0.031,0.49205 0.60779,0.91249 0.50554,0.33276 0.79701,0.36608 0.89781,0.10261 z m 54.243061,-0.13088 c 0.43375,-0.23676 0.59187,-0.39509 0.59187,-0.59265 0,-0.43369 -0.29271,-0.60122 -0.73177,-0.41883 -0.82992,0.34477 -1.16932,0.8374 -0.81899,1.18875 0.20348,0.20408 0.28935,0.18821 0.95889,-0.17727 z m -29.05725,-1.08379 c 1.27545,-0.43585 2.00703,-2.02706 1.49598,-3.25375 -0.23343,-0.56031 -0.94787,-1.11008 -1.75359,-1.3494 -1.4486,-0.43027 -1.71162,-0.55896 -1.79104,-0.8763 -0.19893,-0.7949 1.07791,-1.10132 2.01036,-0.48245 l 0.49219,0.32667 0.39236,-0.44407 c 0.77895,-0.88159 0.75935,-0.9743 -0.3184,-1.50642 -0.73002,-0.36044 -0.86192,-0.38583 -1.7953,-0.3456 -1.21497,0.0524 -1.81721,0.32429 -2.32976,1.05191 -0.72652,1.03139 -0.48951,2.58085 0.49388,3.22867 0.25577,0.16849 0.90118,0.42441 1.43426,0.5687 1.40853,0.38126 1.74329,0.79295 1.07404,1.32092 -0.46665,0.36813 -1.18903,0.32967 -2.05648,-0.1095 l -0.71371,-0.36134 -0.48461,0.56807 c -0.26654,0.31244 -0.48462,0.62485 -0.48462,0.69424 0,0.19144 1.2451,0.89698 1.80644,1.02364 0.78922,0.17807 1.91958,0.15393 2.528,-0.054 z m 7.70519,-0.12715 c 0.35277,-0.0708 0.37861,-0.11118 0.37861,-0.59235 0,-0.73429 -0.12485,-1.26498 -0.28596,-1.21551 -0.0759,0.0233 -0.86046,0.0776 -1.74337,0.12054 l -1.60528,0.0781 v -0.65935 -0.65934 l 0.63606,-0.0766 c 0.34983,-0.0421 1.03132,-0.0771 1.51442,-0.0777 l 0.87836,-0.001 v -0.85054 -0.85055 h -1.575 -1.57499 v -0.54678 c 0,-0.30073 0.0136,-0.55095 0.0303,-0.55604 0.0167,-0.005 0.78201,-0.0527 1.70078,-0.10589 0.91876,-0.0532 1.70227,-0.12852 1.74113,-0.1675 0.0389,-0.039 0.0326,-0.4274 -0.0139,-0.86316 l -0.0846,-0.7923 -1.53539,0.0618 c -0.84446,0.034 -2.04782,0.0931 -2.67413,0.1312 l -1.13875,0.0694 0.0804,2.63007 c 0.0442,1.44654 0.11468,3.16319 0.15655,3.81477 l 0.0761,1.18469 h 2.33004 c 1.28151,0 2.5004,-0.0342 2.70863,-0.0759 z m -16.94786,-0.42636 c 0.58397,-0.25629 1.0919,-0.67072 1.0919,-0.89091 0,-0.0747 -0.23695,-0.369 -0.52654,-0.65405 l -0.52654,-0.51826 -0.4124,0.23818 c -1.15352,0.6662 -2.43632,0.31011 -3.02058,-0.83848 -0.51407,-1.0106 -0.16377,-2.53354 0.71792,-3.12118 0.7647,-0.50966 2.20721,-0.29261 2.75951,0.41523 0.12269,0.15724 0.24409,0.11311 0.87972,-0.3198 0.82692,-0.56319 0.83496,-0.66533 0.10135,-1.28721 -1.2229,-1.03663 -3.07866,-1.24744 -4.5396,-0.51569 -1.79501,0.89909 -2.67872,3.47679 -1.82963,5.33684 0.76462,1.67503 2.34285,2.6219 4.09487,2.45675 0.36649,-0.0345 0.911,-0.17019 1.21002,-0.30142 z m 20.37266,0.1529 c 0.0429,-0.0417 0.006,-0.8679 -0.0826,-1.83592 -0.0883,-0.96803 -0.14057,-1.78004 -0.11621,-1.80447 0.0244,-0.0244 0.98834,0.7141 2.14217,1.64117 2.57872,2.07193 2.88552,2.29349 2.88497,2.0835 -4e-4,-0.1514 -0.10811,-1.27685 -0.58516,-6.11399 l -0.20371,-2.06561 -0.82609,0.0193 c -0.45434,0.0106 -0.85888,0.0522 -0.89896,0.0924 -0.0401,0.0402 0.0172,0.98518 0.12728,2.09997 0.11009,1.11479 0.18791,2.0381 0.17294,2.05182 -0.015,0.0137 -1.13124,-0.87012 -2.48058,-1.96407 -1.34935,-1.09396 -2.45889,-1.94952 -2.46564,-1.90125 -0.0405,0.28945 0.44945,6.81102 0.5659,7.53283 l 0.0642,0.39767 0.81178,-0.0788 c 0.44648,-0.0433 0.84685,-0.11292 0.88971,-0.15465 z m 9.93169,-0.86881 c 0.67961,-0.34228 1.04427,-0.67867 1.31991,-1.21758 0.51356,-1.00411 0.40498,-2.08547 -0.27995,-2.78808 -0.58919,-0.60439 -1.00867,-0.75838 -2.31316,-0.8491 -1.04926,-0.073 -1.23071,-0.11883 -1.42562,-0.36023 -0.29017,-0.35939 -0.2823,-0.44458 0.0741,-0.80198 0.23532,-0.23601 0.4186,-0.2971 0.87836,-0.29276 0.31954,0.003 0.74328,0.0749 0.94164,0.15972 0.35771,0.15299 0.36387,0.14887 0.75721,-0.50623 0.2181,-0.36326 0.39655,-0.6984 0.39655,-0.74475 0,-0.20665 -0.98393,-0.53244 -1.77043,-0.58622 -1.47712,-0.10099 -2.53302,0.41145 -3.02313,1.46718 -0.56538,1.21785 -0.25855,2.48274 0.74538,3.0728 0.40572,0.23846 0.831,0.34646 1.78746,0.45394 0.69029,0.0776 1.34505,0.21606 1.45501,0.30778 0.49724,0.41472 -0.058,1.16337 -0.96383,1.2996 -0.48731,0.0733 -0.99731,-0.0315 -1.75307,-0.36025 -0.14024,-0.061 -0.29293,0.0816 -0.57548,0.53744 -0.45837,0.73951 -0.46379,0.78969 -0.11038,1.02193 0.89494,0.5881 2.8726,0.68381 3.85947,0.18679 z m -37.27879,-0.088 c 0.0547,-0.26034 1.00659,-6.02114 1.20223,-7.27584 0.0363,-0.23275 -0.0448,-0.27293 -0.80449,-0.39876 -0.46466,-0.077 -0.86035,-0.12438 -0.8793,-0.10537 -0.0312,0.0313 -0.815881,4.49087 -1.198341,6.81086 -0.17155,1.04059 -0.16572,1.05357 0.53445,1.19117 0.885551,0.17403 1.069741,0.13832 1.145451,-0.22206 z m -4.274371,-1.39733 c 0.22543,-1.18111 0.99997,-4.99672 1.02443,-5.04669 0.009,-0.019 0.39213,0.0435 0.85074,0.13892 0.45861,0.0954 0.85347,0.15503 0.87748,0.13252 0.0715,-0.067 0.38817,-1.66692 0.33961,-1.71563 -0.0506,-0.0507 -5.0332,-1.01216 -5.24561,-1.01216 -0.0759,0 -0.17492,0.29952 -0.22086,0.66829 -0.0458,0.36755 -0.13385,0.66828 -0.19569,0.66828 -0.0618,0 -0.11243,-0.0713 -0.11243,-0.15847 0,-0.36865 -0.736,-1.2947 -1.28584,-1.61787 -0.60607,-0.35621 -3.443493,-1.18067 -3.577401,-1.03947 -0.04272,0.045 -0.252242,0.73805 -0.4656,1.53999 -0.213359,0.80195 -0.682707,2.45955 -1.042995,3.68356 -0.360288,1.22401 -0.65507,2.2676 -0.65507,2.31908 0,0.094 1.30841,0.49798 1.612936,0.49798 0.09579,0 0.220023,-0.24884 0.301953,-0.60482 0.07656,-0.33264 0.218917,-0.79615 0.316347,-1.03001 l 0.177145,-0.42521 0.522248,0.18822 c 0.804787,0.29006 2.019727,0.25944 2.693907,-0.0679 0.88444,-0.4294 1.52352,-1.449 1.52352,-2.43066 0,-0.26946 0.0569,-0.48993 0.12654,-0.48993 0.0696,0 0.47791,0.0885 0.90735,0.19671 0.69245,0.17444 0.77425,0.226 0.72289,0.45565 -0.40678,1.81873 -1.15101,5.42832 -1.15101,5.58252 0,0.11922 0.13492,0.231 0.33317,0.27604 0.18325,0.0416 0.49673,0.11975 0.69663,0.17361 0.71477,0.1926 0.72164,0.18605 0.92561,-0.88258 z m -6.29355,-4.54364 c -0.586797,-0.21323 -0.586085,-0.2056 -0.15145,-1.62283 0.18433,-0.60103 0.23713,-0.66606 0.52465,-0.64614 0.58146,0.0403 1.1981,0.42071 1.37667,0.84934 0.14249,0.34202 0.14308,0.4652 0.004,0.79923 -0.30782,0.73854 -0.87572,0.93944 -1.75373,0.6204 z m 55.158041,4.46356 c 2.2355,-1.10375 2.80546,-3.87579 1.24638,-6.06194 -1.44792,-2.0303 -4.16791,-2.24839 -5.99061,-0.48034 -2.14597,2.08161 -0.99527,6.1357 1.9617,6.91138 0.75588,0.19829 1.9557,0.0391 2.78253,-0.3691 z m -2.47604,-1.53595 c -0.60357,-0.26841 -0.84853,-0.52141 -1.17055,-1.209 -0.4264,-0.91045 -0.3358,-1.82538 0.24479,-2.47206 1.11088,-1.23735 2.98973,-0.57907 3.47179,1.21639 0.41763,1.55548 -1.15882,3.08156 -2.54603,2.46467 z m 7.11416,0.25702 c 0.42915,-0.14151 0.63606,-0.27559 0.63606,-0.41219 0,-0.11135 -0.14193,-0.62986 -0.31539,-1.15225 -0.17347,-0.52239 -0.28886,-0.97641 -0.25643,-1.00894 0.0324,-0.0325 0.59407,0.32955 1.24807,0.80463 1.32411,0.96184 1.2555,0.95149 2.51763,0.37956 0.73785,-0.33436 0.74126,-0.33822 0.44073,-0.49956 -0.16659,-0.0894 -0.80567,-0.51693 -1.42018,-0.94999 l -1.11729,-0.78738 0.2905,-0.34625 c 0.42064,-0.50136 0.62469,-1.51759 0.42635,-2.12339 -0.46625,-1.42409 -1.49774,-2.22417 -2.65718,-2.06104 -0.30254,0.0426 -1.14979,0.26277 -1.88276,0.48935 -1.30754,0.40417 -1.3324,0.41864 -1.31692,0.76618 0.009,0.19482 0.50879,1.74351 1.11135,3.44152 1.4099,3.9731 1.33543,3.78933 1.50965,3.72488 0.0824,-0.0305 0.43598,-0.14979 0.78581,-0.26513 z m -0.91011,-5.08184 c -0.14915,-0.41713 -0.27117,-0.82012 -0.27116,-0.89553 4e-5,-0.21655 0.94793,-0.41421 1.27333,-0.26552 0.65275,0.29829 0.68399,1.12145 0.0594,1.56489 -0.65404,0.46434 -0.76642,0.42159 -1.06156,-0.40384 z m -64.101113,3.17006 c 1.948958,-0.90926 2.907615,-3.25056 2.154546,-5.26199 -0.324465,-0.86664 -1.244901,-1.90186 -2.058705,-2.31545 -2.640723,-1.34206 -5.794366,0.32112 -6.122853,3.2291 -0.214383,1.89786 1.003085,3.88313 2.765848,4.51014 0.93453,0.33241 2.352665,0.26205 3.261164,-0.1618 z m -2.466274,-1.55769 c -0.919746,-0.27806 -1.551749,-1.2002 -1.547058,-2.25727 0.0036,-0.82073 0.356003,-1.53933 0.975475,-1.98938 0.878422,-0.63818 2.240696,-0.47739 2.931536,0.34602 1.424117,1.69741 -0.28788,4.52706 -2.359953,3.90063 z m 74.526867,0.88946 c 0.34622,-0.11214 0.87436,-0.42215 1.18225,-0.69396 1.02072,-0.90109 1.25646,-1.95445 0.69174,-3.09098 -0.56224,-1.13156 -1.55673,-1.44965 -3.50174,-1.12001 -0.75855,0.12855 -1.19607,-0.0463 -1.24851,-0.49885 -0.063,-0.54365 0.46982,-0.8542 1.40707,-0.82013 l 0.77337,0.0281 0.22671,-0.65859 c 0.1247,-0.36223 0.2285,-0.69703 0.23067,-0.74401 0.007,-0.15311 -0.88795,-0.33851 -1.63161,-0.33799 -2.10721,0.001 -3.54715,1.94858 -2.73928,3.70409 0.55883,1.21434 1.51827,1.47173 4.02206,1.079 0.76638,-0.12021 1.13519,0.61637 0.56481,1.12803 -0.56474,0.50659 -1.54479,0.65771 -2.28353,0.35211 -0.151,-0.0625 -0.25004,0.075 -0.44979,0.62449 -0.14089,0.38752 -0.27183,0.75751 -0.29098,0.8222 -0.054,0.18225 0.85409,0.40948 1.6777,0.41983 0.40881,0.005 1.02489,-0.0819 1.36906,-0.19335 z m -78.447733,-9.22277 c 0.28844,-0.28928 0.235752,-0.7457 -0.1125,-0.97455 -0.281023,-0.18467 -0.325214,-0.18436 -0.612279,0.004 -0.417834,0.27458 -0.481894,0.49781 -0.246324,0.85838 0.227583,0.34835 0.68301,0.40083 0.971103,0.11189 z m 80.762323,-0.0316 c 0.21097,-0.17134 0.25553,-0.29629 0.19372,-0.54327 -0.15827,-0.63244 -0.862,-0.71856 -1.1691,-0.14307 -0.14459,0.27095 -0.13189,0.33356 0.12287,0.60552 0.33891,0.36181 0.48899,0.37604 0.85251,0.0808 z m -43.42586,-2.09089 c 0.46867,-0.17871 0.64553,-0.46488 0.64997,-1.05164 0.003,-0.36736 -0.0778,-0.6048 -0.28853,-0.85055 l -0.29238,-0.34092 -13.92449,-0.0319 c -7.658471,-0.0175 -14.299634,0.01 -14.758135,0.0608 -0.749304,0.0833 -0.844764,0.12439 -0.943605,0.40653 -0.17657,0.50402 0.126383,0.9644 0.891838,1.35528 0.366489,0.18715 0.91168,0.38793 1.211535,0.44618 0.808864,0.15711 27.042487,0.16307 27.453797,0.006 z m 33.97886,-0.38347 c 1.05879,-0.59774 1.31479,-1.11003 0.81913,-1.63917 l -0.26342,-0.28122 -14.24471,0.0106 c -7.83459,0.006 -14.51533,0.0469 -14.84609,0.0911 -0.51063,0.0683 -0.64451,0.14467 -0.88714,0.50576 -0.34856,0.51873 -0.29057,0.99078 0.18253,1.48603 l 0.32528,0.34051 14.05955,-0.0324 14.05955,-0.0323 z m -30.98487,-0.96247 c 0.41988,-0.21535 0.68305,-0.62086 0.68597,-1.05695 0.004,-0.52897 -0.16767,-0.82939 -0.60065,-1.05394 -0.53928,-0.27969 -0.94621,-0.22773 -1.34443,0.17166 -0.91023,0.91289 0.13162,2.51752 1.25911,1.93923 z m -45.649444,-1.59574 c -0.06815,-0.2525 -0.05985,-0.25017 0.108696,0.0304 0.10037,0.16707 0.184423,0.22957 0.186784,0.13888 0.0027,-0.10177 0.07973,-0.13585 0.201379,-0.089 0.108398,0.0417 0.264629,0.0196 0.347181,-0.0491 0.08255,-0.0687 0.389126,-0.14852 0.681276,-0.17735 1.227715,-0.12116 2.382256,-0.4569 2.748743,-0.79933 0.316763,-0.29597 0.321757,-0.35632 0.07793,-0.94172 -0.513627,-1.23317 -1.718601,-1.80917 -3.001984,-1.43499 -0.740829,0.21599 -1.176293,0.62755 -1.542264,1.45758 -0.272998,0.61917 -0.268996,1.37705 0.01003,1.89994 0.171363,0.32113 0.273112,0.30143 0.182226,-0.0353 z m 89.900624,-0.19994 c -0.0369,-0.0598 0.15073,-0.12964 0.41689,-0.1551 0.27946,-0.0267 0.48472,0.006 0.4858,0.0784 0.005,0.30959 0.23687,-0.28038 0.23792,-0.60432 0.006,-1.87139 -1.9907,-3.13699 -3.63208,-2.30212 -0.78797,0.40079 -1.33824,1.36846 -1.32417,2.3286 0.006,0.39408 0.0379,0.50571 0.1,0.34693 0.0895,-0.22903 0.0934,-0.2291 0.17973,-0.003 0.0745,0.19463 0.10592,0.20275 0.20106,0.0519 0.0823,-0.13057 0.11328,-0.13616 0.11464,-0.0207 0.001,0.11065 0.19282,0.15548 0.63791,0.14931 0.75593,-0.0105 2.30486,0.11066 2.38013,0.18615 0.0998,0.10004 0.26938,0.0534 0.2022,-0.0556 z m -47.09036,-2.82053 c 0.39533,-0.13821 0.74132,-0.63529 0.74132,-1.06503 0,-0.13185 -0.14115,-0.40795 -0.31366,-0.61357 l -0.31365,-0.37384 H 99.451339 82.630567 l -0.251101,0.32015 c -0.448903,0.57235 -0.240235,1.48821 0.397919,1.74649 0.405159,0.16398 32.910635,0.15015 33.380725,-0.0142 z m 38.65525,-0.0439 c 0.31254,-0.16209 0.61289,-0.70413 0.61289,-1.10606 0,-0.0851 -0.14115,-0.32304 -0.31366,-0.52865 l -0.31365,-0.37384 h -16.88445 c -12.11623,0 -16.96782,0.0381 -17.17967,0.1349 -0.48851,0.22323 -0.70831,0.94768 -0.44005,1.45039 0.33031,0.61899 -0.46763,0.59173 17.47937,0.59696 14.45614,0.004 16.74108,-0.0191 17.03922,-0.1737 z M 73.656939,137.1654 c 0.520132,-0.52165 0.448687,-1.23149 -0.174942,-1.73812 -0.650629,-0.52856 -1.639499,-0.015 -1.647828,0.85584 -0.005,0.51817 0.162621,0.82378 0.574672,1.04805 0.501442,0.27291 0.857894,0.22557 1.248098,-0.16577 z m 91.464381,-0.012 c 0.35412,-0.33176 0.38526,-0.41662 0.32319,-0.88073 -0.13026,-0.97397 -1.0647,-1.38031 -1.70273,-0.74043 -0.45902,0.46036 -0.44429,1.15269 0.0347,1.63312 0.45389,0.45521 0.84991,0.45169 1.3448,-0.012 z M 97.854929,123.66881 c 0.0205,-7.25092 0.001,-14.01214 -0.0425,-15.02492 l -0.0797,-1.84143 -0.56326,0.18393 c -0.3098,0.10117 -0.87738,0.2949 -1.2613,0.43052 l -0.69802,0.24658 0.004,14.62187 0.004,14.62186 1.29954,-0.0275 1.29955,-0.0275 z m 13.471271,13.16357 c 9e-5,-0.011 -0.35503,-0.21914 -0.78916,-0.46263 -3.09999,-1.73866 -5.67191,-4.78943 -6.82195,-8.09207 -0.85716,-2.46156 -0.98271,-5.6793 -0.32207,-8.25408 1.52932,-5.96029 6.57399,-10.47602 12.70357,-11.37158 0.74142,-0.10833 1.35616,-0.20491 1.36609,-0.21464 0.01,-0.01 0.0372,-0.94721 0.0606,-2.08329 l 0.0425,-2.06562 -0.90865,-0.0385 c -3.81793,-0.16181 -13.30762,1.04528 -17.173521,2.18446 -0.7871,0.23194 -0.87836,0.29037 -0.87836,0.56237 v 0.30354 l 0.95665,-0.08 c 0.550801,-0.0461 1.090471,-0.029 1.272111,0.0403 l 0.31547,0.12029 v 14.7034 14.70341 l 3.36201,0.0397 c 3.36769,0.0398 6.81439,0.0423 6.81471,0.005 z m -10.90365,-1.07365 v -0.9113 H 100.076 c -0.190611,0 -0.599501,0.0348 -0.908651,0.0773 l -0.5621,0.0773 v 0.83404 0.83403 h 0.90865 0.908651 z m -6.784601,-1.15431 v -0.97205 l -1.12067,-0.005 c -0.61637,-0.003 -4.241886,-0.0331 -8.056708,-0.0671 -4.94528,-0.044 -6.936039,-0.0239 -6.936039,0.0701 0,0.14478 0.535558,1.23926 0.818664,1.67302 l 0.178432,0.27339 h 7.558161 7.55816 z m 65.506671,0.57633 c 0.14602,-0.21674 0.37579,-0.65379 0.5106,-0.97123 l 0.2451,-0.57715 -0.99521,-0.0101 c -0.54737,-0.006 -4.25273,-0.0192 -8.23414,-0.0304 l -7.23892,-0.0202 v 1.00243 1.00243 l 7.72354,-8.3e-4 7.72353,-8.3e-4 z m -58.72207,-1.84396 c 0,-0.91876 -0.0912,-0.98628 -1.152211,-0.85333 l -0.66509,0.0833 v 0.70614 c 0,0.80548 0.004,0.80877 1.12067,0.83136 l 0.696631,0.0141 z m 9.811,0.35339 c -0.0843,-0.10186 -0.18479,-0.15356 -0.22334,-0.1149 -0.0386,0.0387 0.0101,0.12117 0.10813,0.18334 0.25648,0.16267 0.28999,0.14277 0.11521,-0.0684 z m -0.46629,-0.34239 c -0.0742,-0.0897 -0.0991,-0.19904 -0.0552,-0.24301 0.0438,-0.044 0.002,-0.0808 -0.0919,-0.0818 -0.14742,-0.002 -0.14754,-0.0172 -8.9e-4,-0.11026 0.0939,-0.0596 0.25278,-0.0768 0.35304,-0.0382 0.21746,0.0837 0.18229,0.0167 -0.52717,-1.00395 -0.43705,-0.62877 -0.91106,-1.39066 -1.77338,-2.85041 -0.44855,-0.75931 -0.94676,-2.54054 -1.151,-4.11514 -0.17905,-1.38034 -0.18834,-1.79808 -0.0648,-2.9126 0.38775,-3.49732 1.76123,-6.0293 4.48567,-8.26923 0.80858,-0.66479 2.45899,-1.51532 3.77876,-1.94739 4.26449,-1.39608 8.90397,-0.38995 12.12755,2.63002 0.41261,0.38656 0.44174,0.39574 0.50352,0.15877 0.0361,-0.13833 0.0148,-0.28297 -0.0472,-0.32142 -0.062,-0.0384 -0.10497,-0.0248 -0.0954,0.0303 0.0513,0.29607 -0.0543,0.25882 -0.4613,-0.16279 -0.24747,-0.25635 -0.55484,-0.52076 -0.68304,-0.58759 -0.26591,-0.13862 -0.29442,-0.3381 -0.0573,-0.40111 0.12779,-0.034 0.127,-0.0191 -0.004,0.0729 -0.20782,0.14612 0.0288,0.32231 0.29521,0.21978 0.11648,-0.0448 0.22006,0.037 0.29409,0.23225 0.0628,0.1658 0.1461,0.30145 0.185,0.30145 0.0389,0 0.037,-0.0547 -0.004,-0.12151 -0.35049,-0.56875 1.28949,0.85968 1.8234,1.5882 0.07,0.0955 0.16369,0.26934 0.20822,0.38629 0.10825,0.28433 0.28781,0.26934 0.36601,-0.0305 0.0349,-0.13375 0.014,-0.21254 -0.0464,-0.17509 -0.0604,0.0374 -0.10985,-0.0522 -0.10985,-0.19923 0,-0.39754 -2.044,-2.38201 -3.29155,-3.19568 -2.36252,-1.54087 -4.53299,-2.16018 -7.55169,-2.15473 -2.29274,0.004 -4.12533,0.45325 -6.1744,1.51319 -2.92181,1.51137 -5.41081,4.313 -6.4294,7.23694 -0.57445,1.64899 -0.70495,2.49518 -0.70462,4.56894 2.8e-4,1.71079 0.0382,2.08564 0.31576,3.12343 0.68978,2.57879 2.16195,4.94943 4.0794,6.56904 0.55195,0.46622 0.74629,0.57705 0.50898,0.29028 z m 11.3515,-1.17381 c 3.67489,-1.0297 6.26094,-3.78003 7.0017,-7.44648 0.3964,-1.96201 0.036,-4.16598 -1.0169,-6.21804 -0.44748,-0.87216 -0.78889,-1.32592 -1.65834,-2.20411 -1.27071,-1.28349 -2.28376,-1.92601 -3.94196,-2.5002 -1.11034,-0.38448 -1.21723,-0.39843 -3.02884,-0.39527 -1.72574,0.003 -1.9613,0.0308 -2.90768,0.34344 -1.24435,0.41102 -2.54455,1.10896 -3.46161,1.85816 -1.45935,1.19225 -2.80394,3.33165 -3.26934,5.20192 -0.28263,1.13577 -0.2832,3.24763 -0.001,4.30646 1.01255,3.80125 4.21603,6.67459 8.13008,7.29223 1.07002,0.16885 3.12128,0.0513 4.15404,-0.23811 z m -4.22946,-2.60725 c -2.66239,-0.67806 -4.59393,-2.64421 -5.13757,-5.22964 -0.42576,-2.0248 -0.005,-3.89418 1.25246,-5.56315 0.74448,-0.9882 2.10863,-1.94438 3.22889,-2.26326 3.45557,-0.98362 6.81611,0.40586 8.29855,3.43119 0.947,1.93263 0.98795,4.00433 0.1157,5.85331 -0.76823,1.62846 -2.31606,3.02898 -3.95728,3.58066 -1.03913,0.34929 -2.82635,0.43905 -3.80075,0.19089 z m -2.14351,-6.51598 c 0.12811,-0.17285 0.26337,-0.54193 0.30058,-0.82017 0.0372,-0.27823 0.0935,-0.50588 0.12514,-0.50588 0.0316,0 0.16158,0.13273 0.28882,0.29497 0.74458,0.94934 2.28717,0.47393 2.28717,-0.70489 0,-0.34537 -0.50312,-0.99911 -0.85515,-1.11117 -0.30921,-0.0984 -0.2092,-0.25206 0.22014,-0.33818 0.89808,-0.18014 1.3019,-1.1644 0.67925,-1.65561 -0.74608,-0.58858 -2.30672,-0.0712 -3.39829,1.12666 -0.70442,0.77299 -1.11856,1.71192 -1.21417,2.75274 -0.0518,0.56375 -0.0193,0.72157 0.2077,1.00893 0.35347,0.44747 1.009,0.4246 1.35881,-0.0474 z m -21.088761,8.1211 c 0.0687,-1.05584 2.3e-4,-1.39408 -0.29843,-1.4744 -0.37717,-0.10143 -17.166756,-0.0926 -17.166756,0.009 0,0.0461 0.147535,0.53825 0.327856,1.09356 l 0.327856,1.00967 h 8.383985 8.383989 z m 67.253191,-0.38299 c 0.18423,-0.52807 0.30238,-0.99284 0.26257,-1.0328 -0.0398,-0.04 -4.04777,-0.0884 -8.90657,-0.10754 l -8.83417,-0.0349 v 1.09887 1.09888 l 8.57161,-0.0312 8.57161,-0.0312 z m -60.48767,0.0488 v -0.85054 h -0.908651 -0.90865 v 0.7828 0.78281 l 0.5149,0.0465 c 0.28319,0.0256 0.69209,0.0561 0.908651,0.0677 l 0.39375,0.0212 z M 72.779236,130.5888 c 0.08647,-0.56034 -0.724704,-1.01661 -1.367529,-0.76922 -0.285487,0.10988 -0.567241,0.7271 -0.483911,1.06008 0.06217,0.24844 0.131865,0.28095 0.517473,0.24139 0.245093,-0.0251 0.521484,-0.0731 0.614202,-0.10657 0.144002,-0.052 0.144002,-0.03 0,0.1508 -0.132184,0.16597 -0.07703,0.15475 0.255459,-0.0519 0.233221,-0.14499 0.442159,-0.38103 0.464306,-0.52454 z m 93.526594,0.46758 c 0.23303,-0.23371 0.16818,-0.76268 -0.12721,-1.03755 -0.43391,-0.40378 -0.92765,-0.40713 -1.29768,-0.009 -0.23685,0.25497 -0.33903,0.93787 -0.16626,1.11115 0.14016,0.14057 1.43913,0.0877 1.59115,-0.0648 z m -65.82164,-2.3147 c -0.0223,-0.2172 -0.0453,-0.5726 -0.0511,-0.7898 l -0.0105,-0.3949 h -0.717011 c -1.06117,0 -1.10029,0.0307 -1.10029,0.86355 v 0.71604 h 0.95978 0.959781 z m 66.84539,-0.59079 c 0.45015,-0.47927 0.4428,-0.98868 -0.021,-1.4538 -0.26219,-0.26295 -0.46908,-0.35517 -0.79682,-0.35517 -0.59755,0 -1.15258,0.5393 -1.1471,1.11459 0.005,0.47564 0.19155,0.75649 0.66929,1.00506 0.45036,0.23433 0.88061,0.13116 1.2956,-0.31068 z m -95.577532,0.0802 c 0.516445,-0.48002 0.378969,-1.46973 -0.243676,-1.75425 -1.004143,-0.45886 -1.994027,0.38809 -1.616753,1.38329 0.182362,0.48105 0.463794,0.66056 1.042643,0.66506 0.363409,0.003 0.58348,-0.0763 0.817786,-0.2941 z m 6.872775,-0.43108 h 2.413161 l -4.53e-4,-0.39489 c -6.9e-4,-0.6024 -0.392292,-1.14771 -0.932184,-1.29807 -0.253346,-0.0706 -1.408051,-0.12859 -2.566011,-0.12896 l -2.105383,-6.8e-4 0.08097,0.5164 c 0.162462,1.0361 0.317321,1.45222 0.512492,1.37711 0.101333,-0.039 1.270166,-0.0709 2.597405,-0.0709 z m 7.86507,-0.10296 c 0,-0.11911 -0.915888,-1.21063 -3.380119,-4.02827 -2.397904,-2.7418 -2.088967,-2.49543 -2.838521,-2.26369 -0.903745,0.27942 -1.625639,0.0861 -2.284688,-0.61164 -1.260125,-1.33421 -0.423737,-3.63426 1.413395,-3.8868 0.795786,-0.10939 1.767557,0.38977 2.20019,1.13015 0.290177,0.4966 0.312919,0.626 0.247518,1.40837 l -0.07202,0.86154 0.827831,0.86086 c 0.455307,0.47348 1.577467,1.70838 2.493689,2.74423 0.916222,1.03584 1.727071,1.89768 1.801886,1.9152 0.07482,0.0175 0.321132,-0.0645 0.54737,-0.18226 0.335102,-0.17442 0.463287,-0.36011 0.691596,-1.00182 l 0.280252,-0.78771 -1.145921,-1.16975 -1.145921,-1.16976 v -1.93816 -1.93816 l -0.600584,-0.15437 c -1.968839,-0.50607 -2.154001,-3.3379 -0.272821,-4.17246 1.08124,-0.47968 2.260619,-0.0623 2.829397,1.00136 0.420041,0.78549 0.195498,1.97862 -0.489257,2.5997 -0.240196,0.21786 -0.254644,0.34645 -0.24576,2.18712 l 0.0094,1.95566 0.830827,0.76658 0.830827,0.76659 0.401557,-0.20303 c 0.809563,-0.40933 1.492063,-1.26939 1.007323,-1.26939 -0.25605,0 -0.23269,-0.56311 0.0303,-0.73006 0.15183,-0.0964 0.16903,-0.15271 0.0606,-0.19842 -0.20187,-0.0851 -0.20704,-1.76181 -0.006,-1.96338 0.1593,-0.15977 0.92301,-0.195 1.14488,-0.0528 0.0822,0.0527 0.16469,0.58707 0.20127,1.30433 0.0341,0.66829 0.10842,1.43378 0.1652,1.7011 l 0.10323,0.48603 0.75559,0.0362 0.75559,0.0362 0.0226,-3.25611 c 0.0124,-1.79086 0.033,-3.85756 0.0456,-4.59268 0.0351,-2.04245 0.0274,-2.06624 -0.73121,-2.2365 -1.22466,-0.27486 -2.15009,-1.17485 -2.30905,-2.24558 -0.0408,-0.27483 -0.0567,-1.45656 -0.0352,-2.62607 0.033,-1.80096 0.0746,-2.19831 0.27165,-2.5965 0.30086,-0.60791 1.25877,-1.36404 2.89508,-2.28526 l 1.31045,-0.73777 -1.00757,-1.05852 c -0.79307,-0.833174 -1.10368,-1.077864 -1.45907,-1.149404 -1.06815,-0.21503 -1.78442,-1.11631 -1.78784,-2.24963 -0.003,-0.90692 0.35984,-1.62748 1.00916,-2.00551 1.01094,-0.58857 1.94675,-0.51309 2.72426,0.21972 0.51206,0.48261 0.65691,0.74715 0.74063,1.35253 l 0.0672,0.48603 1.09671,0.0608 c 1.20592,0.0668 1.52474,0.20553 2.04521,0.8899 0.26206,0.34457 0.31096,0.53639 0.31096,1.21988 v 0.81101 l 0.33317,-0.0757 c 0.18324,-0.0417 0.64548,-0.15325 1.027201,-0.24797 0.38171,-0.0947 0.97646,-0.22595 1.32166,-0.2916 0.3452,-0.0657 0.83704,-0.17593 1.09299,-0.24505 l 0.46535,-0.12567 v -0.85981 -0.85981 l -0.87836,-0.83207 c -0.69353,-0.65697 -0.92936,-0.81384 -1.12067,-0.74547 -0.89118,0.31848 -2.031841,-0.17951 -2.494511,-1.08906 -0.54042,-1.06241 -0.0427,-2.54006 1.01839,-3.0232 1.934591,-0.8809 3.754431,0.94467 2.876021,2.88508 l -0.23034,0.50884 0.89935,0.84306 0.89935,0.84307 v 1.06339 1.06339 l 0.5149,-0.0847 c 1.34014,-0.22033 5.2163,-0.68037 6.25692,-0.7426 1.81304,-0.10842 1.70892,-0.0495 1.70892,-0.96694 0,-0.67337 -0.0371,-0.80843 -0.25787,-0.93936 -0.14183,-0.0841 -0.96722,-0.60147 -1.83421,-1.14969 -1.53661,-0.97166 -1.58493,-0.99233 -1.91688,-0.82018 -1.14694,0.59484 -2.53178,-0.31188 -2.53287,-1.6584 -8.5e-4,-1.04504 0.78311,-1.83823 1.81685,-1.83823 1.02617,0 1.6989,0.66341 1.79,1.76519 l 0.054,0.65366 1.8602,1.25269 1.86019,1.25268 0.0346,1.10325 0.0346,1.10325 1.99903,-0.0394 c 1.09947,-0.0217 2.03993,-0.0647 2.0899,-0.0956 0.05,-0.0309 0.0909,-1.00369 0.0909,-2.16181 v -2.10567 l -0.39375,-0.0743 c -1.40786,-0.26556 -3.07973,-1.62916 -3.74464,-3.05419 -0.68822,-1.47497 -0.59553,-3.60487 0.21743,-4.99613 1.05966,-1.81343 3.02302,-2.82725 5.19307,-2.68154 0.53307,0.0358 1.22343,0.16194 1.53413,0.28032 3.07854,1.17297 4.39659,4.78228 2.84517,7.79114 -0.54987,1.06643 -2.08085,2.25826 -3.40367,2.64968 l -0.49102,0.14529 -0.0332,2.0854 c -0.0255,1.60377 0.002,2.09784 0.12116,2.13927 0.0849,0.0296 1.01306,0.0694 2.06266,0.0884 l 1.90833,0.0346 -1.7e-4,-1.04859 -1.6e-4,-1.04858 0.63605,-0.47577 c 0.34983,-0.26167 1.01769,-0.71365 1.48413,-1.00438 1.53087,-0.95421 1.75673,-1.17669 1.75673,-1.73045 0,-1.08816 0.75581,-1.84711 1.83948,-1.84711 0.62863,0 1.04171,0.22743 1.47834,0.81396 0.34518,0.46368 0.34664,1.52191 0.003,1.98782 -0.60422,0.81862 -1.56984,1.11321 -2.33988,0.71384 -0.33211,-0.17224 -0.3755,-0.15274 -1.87857,0.8445 -0.84625,0.56145 -1.64464,1.05456 -1.77421,1.0958 -0.20314,0.0647 -0.2356,0.18961 -0.2356,0.90699 v 0.83199 l 0.93894,0.0771 c 1.82136,0.14961 5.55445,0.57623 6.50573,0.74348 0.76269,0.13409 0.98461,0.13801 1.06703,0.0189 0.0572,-0.0827 0.0758,-0.56053 0.0414,-1.06175 l -0.0627,-0.9113 0.86531,-0.82711 c 0.86087,-0.82286 0.86436,-0.82879 0.67833,-1.15431 -0.47697,-0.83465 -0.35077,-1.8093 0.33248,-2.56777 0.53139,-0.5899 0.97273,-0.7716 1.74434,-0.71813 l 0.61369,0.0425 -0.032,-3.93295 -0.032,-3.93296 -1.4152,-0.5831 c -2.77886,-1.14495 -6.29122,-2.15087 -9.09486,-2.60471 -1.11028,-0.17973 -1.11734,-0.16864 -0.57638,0.90611 0.7832,1.55604 1.37887,1.94457 2.98746,1.94857 1.18872,0.003 1.8006,0.20454 2.36847,0.78029 0.79539,0.80642 0.91439,2.21192 0.26528,3.13336 -0.55483,0.78761 -1.06798,0.98462 -2.71835,1.04363 -0.92219,0.033 -1.50062,0.002 -1.6703,-0.0889 -0.3214,-0.1725 -0.44881,-0.63358 -0.26847,-0.97153 0.12499,-0.23423 0.24013,-0.25433 1.45625,-0.25433 0.72629,0 1.46302,-0.0543 1.63717,-0.12074 0.45691,-0.17422 0.72274,-0.8647 0.54309,-1.41063 -0.18887,-0.57394 -0.58096,-0.73569 -1.95055,-0.80466 -2.04538,-0.10299 -2.79147,-0.7078 -4.16388,-3.37541 -0.91202,-1.77271 -1.17402,-2.05156 -2.56823,-2.73339 l -0.88927,-0.43489 0.29151,-0.39004 c 0.68757,-0.91994 0.8614,-1.42685 0.86293,-2.51641 0.001,-0.91934 -0.038,-1.10434 -0.35815,-1.68393 -0.74104,-1.34182 -2.0032,-2.02354 -3.57789,-1.93254 -1.46957,0.0849 -2.49301,0.75671 -3.14432,2.06388 -0.62773,1.25987 -0.48177,2.6208 0.41542,3.87326 l 0.42028,0.5867 -0.9856,0.51426 c -0.54208,0.28284 -1.16126,0.69043 -1.37596,0.90576 -0.2147,0.21532 -0.73739,1.05922 -1.16153,1.87534 -0.85975,1.65431 -1.43996,2.39455 -2.2501,2.87071 -0.50427,0.29638 -0.68605,0.32664 -2.36122,0.39298 -1.80037,0.0713 -1.81722,0.0746 -2.10706,0.41279 -0.38628,0.45071 -0.38629,1.05455 -2e-5,1.50528 l 0.29216,0.34092 2.52305,0.0376 c 2.10362,0.0313 2.55857,0.0698 2.73668,0.23147 0.28411,0.25787 0.26984,0.58588 -0.039,0.89558 -0.24293,0.24363 -0.35065,0.25173 -2.81682,0.2117 -2.84365,-0.0462 -2.9907,-0.0813 -3.69211,-0.8825 -0.74271,-0.84836 -0.79391,-2.06049 -0.12553,-2.97199 0.62385,-0.85078 1.10675,-1.02387 3.07071,-1.1007 0.98347,-0.0385 1.8037,-0.12821 1.95213,-0.21358 0.43216,-0.24858 1.02968,-1.0141 1.39591,-1.78839 l 0.34883,-0.73752 -0.28444,-0.0366 c -0.74163,-0.0954 -5.94614,1.21708 -8.52685,2.15027 -2.23568,0.80843 -2.992741,1.17523 -3.078121,1.49137 -0.0421,0.15574 -0.0475,1.54597 -0.0122,3.08941 0.0631,2.754 0.0594,2.81113 -0.19673,3.06805 -0.14357,0.14399 -0.3634,0.26179 -0.48851,0.26179 -0.5046,0 -0.55713,-0.26887 -0.6206,-3.17621 l -0.0606,-2.775 -1.39327,0.79736 c -1.71159,0.97954 -3.39737,2.10702 -3.56201,2.38235 -0.0946,0.15822 0.0222,0.50711 0.50876,1.51883 0.34737,0.72238 0.63127,1.43335 0.63089,1.57993 -7.5e-4,0.28325 -0.41115,0.6448 -0.73192,0.6448 -0.25311,0 -0.68071,-0.48144 -1.31614,-1.48186 -0.75405,-1.18716 -0.74938,-1.18527 -1.49632,-0.60675 -0.71371,0.55277 -4.44629,4.32034 -5.356248,5.40644 l -0.591027,0.70544 0.616893,0.54122 c 0.713515,0.62598 0.906801,1.14319 0.567675,1.51901 -0.363094,0.40238 -0.76981,0.29562 -1.378583,-0.36188 -0.439712,-0.47491 -0.698084,-0.63889 -1.265572,-0.80321 -2.063913,-0.59762 -4.04808,0.49216 -4.620351,2.53766 -0.50609,1.808964 0.390999,3.722684 2.1006,4.481124 0.607619,0.26956 1.823405,0.41067 2.477694,0.28756 0.411061,-0.0773 0.420225,-0.0922 0.482931,-0.78579 0.03516,-0.38883 0.152622,-0.87899 0.261037,-1.08926 0.725202,-1.40647 2.415847,-1.888044 3.626257,-1.03291 1.440535,1.0177 1.406884,3.21878 -0.06476,4.2359 -0.781614,0.54021 -1.376825,0.61234 -2.247226,0.27233 -0.63741,-0.249 -0.936878,-0.27565 -3.483884,-0.3101 -1.532592,-0.0207 -2.903041,-0.009 -3.045442,0.027 -0.189002,0.0472 -0.393566,0.37257 -0.757617,1.20508 -0.606371,1.38666 -1.403697,3.82622 -1.288322,3.94185 0.0461,0.0462 1.161941,0.0849 2.479656,0.086 l 2.395845,0.002 0.497429,0.34573 c 1.026862,0.71369 1.290507,2.15935 0.587968,3.22405 -0.583479,0.88427 -0.723947,0.91708 -4.110374,0.96008 -1.649202,0.0209 -2.999002,0.0483 -2.999556,0.0607 -5.53e-4,0.0125 -0.08385,0.62414 -0.185094,1.35925 -0.226073,1.64141 -0.363918,5.58163 -0.245118,7.00654 l 0.08777,1.0527 2.503931,0.042 c 2.794868,0.0469 2.863384,0.0642 3.844289,0.97104 0.610688,0.56455 0.820921,1.10207 0.811778,2.07552 l -0.0066,0.69907 h 2.046918 c 1.125805,0 2.046918,-0.0463 2.046918,-0.10296 z m 68.730747,-0.7565 c 0.083,-0.99316 0.45371,-1.7419 1.1115,-2.24509 0.72216,-0.55242 1.34823,-0.66216 3.77777,-0.66216 h 2.22209 l -0.001,-2.76428 c -9.5e-4,-2.65867 -0.0842,-3.938 -0.37953,-5.83232 l -0.13733,-0.88093 h -2.1478 c -1.98943,0 -2.17135,-0.0186 -2.46703,-0.25183 -0.3649,-0.28787 -0.40995,-0.66129 -0.11871,-0.98405 0.17956,-0.19899 0.41997,-0.2222 2.30191,-0.2222 1.15578,0 2.10141,-0.0238 2.10141,-0.0528 0,-0.45155 -0.90022,-3.82494 -1.15155,-4.31516 l -0.15252,-0.2975 -3.43689,0.0324 c -3.36771,0.0318 -3.44544,0.0381 -3.86094,0.31482 -1.60772,1.07063 -3.5429,0.41779 -4.18676,-1.41241 -0.0961,-0.27323 -0.17476,-0.61667 -0.17476,-0.76321 0,-0.59025 0.38226,-1.51282 0.84553,-2.04066 0.78753,-0.89729 1.10509,-0.97658 4.24291,-1.05939 3.0884,-0.0815 3.38734,-0.15581 4.32623,-1.07534 0.83637,-0.81912 1.05456,-1.36156 1.06024,-2.635774 0.006,-1.3251 -0.24355,-1.96767 -1.08059,-2.78355 -0.96522,-0.94083 -2.56522,-1.3061 -3.80282,-0.86818 l -0.49663,0.17573 -0.94215,-1.04977 c -2.46678,-2.74856 -3.70332,-4.04485 -4.80091,-5.03292 l -1.19338,-1.0743 -0.46285,0.36765 c -0.81197,0.64497 -1.53518,0.90531 -2.48115,0.89319 -1.01224,-0.013 -1.5732,-0.23449 -2.30345,-0.90956 -0.96245,-0.88975 -1.15847,-2.2482 -0.50631,-3.50887 l 0.31549,-0.60986 -0.7519,-0.38667 c -1.89304,-0.97351 -2.14492,-1.07336 -2.14862,-0.85173 -0.002,0.11411 -3.8e-4,1.78022 0.003,3.70247 0.004,2.14591 -0.0406,3.58395 -0.11615,3.72545 -0.0879,0.16479 -0.0716,0.37639 0.0572,0.74264 0.39691,1.12826 0.0799,2.24706 -0.81232,2.8672 -0.42946,0.29848 -0.61484,0.34716 -1.32416,0.34771 l -0.82479,6.3e-4 -0.67061,0.66414 -0.67062,0.66414 v 0.94351 c 0,0.88104 0.0181,0.94718 0.2726,0.99891 0.14993,0.0305 1.0086,0.22333 1.90817,0.42858 0.89956,0.20524 1.67646,0.37273 1.72643,0.37219 0.05,-5.5e-4 0.0909,-0.34423 0.0909,-0.76375 0,-0.87084 0.14106,-1.13976 0.87912,-1.67596 0.45369,-0.32961 0.56905,-0.35594 1.55982,-0.35594 1.06851,0 1.06999,-4.3e-4 1.14366,-0.33414 0.25893,-1.17288 0.81802,-1.8178 1.81972,-2.09908 1.36491,-0.38327 2.82771,0.77928 2.83232,2.25096 0.003,0.98122 -0.93594,2.12653 -1.90242,2.32039 -0.24218,0.0486 -0.71383,0.42549 -1.40915,1.126084 l -1.04513,1.05306 1.12015,0.59494 c 1.66117,0.88227 2.68375,1.57072 3.05171,2.05455 0.43845,0.57652 0.58656,1.69597 0.53313,4.02961 -0.0396,1.72828 -0.0588,1.85179 -0.37225,2.38659 -0.40815,0.69644 -1.23224,1.26178 -2.10379,1.44324 l -0.65498,0.13637 v 4.90162 4.90162 l 0.71246,0.0412 c 0.39185,0.0226 0.78874,0.0258 0.88198,0.007 0.27143,-0.0547 0.49241,-1.07524 0.54848,-2.53314 l 0.052,-1.35221 0.39097,-0.0636 c 0.21503,-0.035 0.53896,-0.0353 0.71984,-5.8e-4 l 0.32886,0.063 v 1.13298 c 0,0.62425 -0.0544,1.1667 -0.12115,1.20807 -0.20464,0.12685 -0.1345,0.39343 0.12115,0.46048 0.28848,0.0757 0.30922,0.24486 0.0606,0.49422 -0.1,0.10024 -0.18173,0.23427 -0.18173,0.29785 0,0.16567 1.28599,1.11684 1.50998,1.11684 0.10323,0 0.56888,-0.36908 1.03479,-0.82017 l 0.84709,-0.82018 0.0116,-1.85224 c 0.0114,-1.8171 0.006,-1.85924 -0.29801,-2.22127 -0.3088,-0.36805 -0.56166,-1.05509 -0.5579,-1.5158 0.003,-0.36298 0.40982,-1.17866 0.73954,-1.48266 1.35745,-1.25156 3.52703,-0.52951 3.81025,1.26807 0.0659,0.41831 0.0202,0.63914 -0.24448,1.18176 -0.37992,0.77877 -0.79577,1.1135 -1.63041,1.31234 l -0.60269,0.14359 -0.0383,1.92729 c -0.0328,1.65371 -0.0678,1.94894 -0.24645,2.07973 -0.11451,0.0838 -0.65015,0.57591 -1.19033,1.09349 l -0.98213,0.94107 0.18453,0.39002 c 0.1015,0.21451 0.25167,0.64173 0.33371,0.94937 0.13193,0.49471 0.20182,0.57518 0.6047,0.69624 0.51111,0.15358 0.25185,0.36863 2.39956,-1.99041 0.42811,-0.47023 1.33584,-1.43264 2.01717,-2.13867 l 1.23879,-1.28371 -0.0631,-0.78829 c -0.0514,-0.64282 -0.0166,-0.8796 0.18857,-1.28303 0.52096,-1.02416 1.54128,-1.52457 2.5379,-1.24473 2.02663,0.56908 2.32573,3.20556 0.48159,4.24505 -0.60727,0.34229 -1.49207,0.38387 -1.93767,0.091 -0.29449,-0.19352 -0.31047,-0.18541 -0.97051,0.49304 -0.95823,0.98495 -4.9327,5.49634 -5.07173,5.75688 -0.11013,0.20639 -1.1e-4,0.21846 1.9903,0.21846 h 2.10688 z m -4.82226,-26.23112 c -0.87595,-0.20524 -1.42123,-0.903824 -1.42123,-1.820794 0,-1.10648 0.66227,-1.83386 1.74937,-1.92139 0.7098,-0.0572 1.23595,0.20418 1.71392,0.85127 0.38998,0.52796 0.35246,1.50611 -0.0796,2.07459 -0.51324,0.675314 -1.25229,0.982734 -1.96248,0.816324 z m 0.80824,-1.421604 c 0.46269,-0.41994 0.12769,-1.18388 -0.4875,-1.1117 -0.45482,0.0534 -0.66229,0.52084 -0.43058,0.97022 0.20213,0.39202 0.5782,0.44997 0.91808,0.14148 z m 10.62404,27.823634 c 0.2542,-1.26945 0.46238,-1.16267 -2.1741,-1.11505 l -2.31199,0.0418 -0.35339,0.39681 c -0.26509,0.29766 -0.3534,0.51778 -0.3534,0.88092 v 0.48411 h 2.5275 2.5275 z m -70.070591,0.29166 c 0.66917,-0.37475 1.08836,-1.21813 0.97668,-1.96502 -0.10908,-0.72952 -0.5034,-1.27296 -1.17524,-1.6197 -0.46366,-0.2393 -0.6613,-0.27513 -1.12925,-0.20475 -2.019516,0.30372 -2.235695,3.08901 -0.30776,3.96519 0.38238,0.17377 1.16083,0.0901 1.63557,-0.17572 z m 55.863341,0.0441 c 1.32129,-0.60182 1.45296,-2.54791 0.2354,-3.4793 -0.80998,-0.6196 -1.92891,-0.51111 -2.59679,0.25179 -0.68592,0.78349 -0.71518,1.83578 -0.0745,2.67824 0.58666,0.77139 1.49734,0.97674 2.43586,0.54927 z m -47.20086,-1.53052 v -0.78979 h -0.908651 -0.90865 v 0.78979 0.7898 h 0.90865 0.908651 z m 0,-2.43013 v -0.7898 h -0.530051 c -0.29152,0 -0.70042,0.0342 -0.90865,0.0759 -0.37248,0.0747 -0.3786,0.0875 -0.3786,0.7898 v 0.71385 h 0.90865 0.908651 z m 0,-2.43014 v -0.78979 h -0.908651 -0.90865 v 0.78979 0.78979 h 0.90865 0.908651 z m -20.102167,-1.14497 c 0.497715,-0.49917 0.478848,-1.00214 -0.05778,-1.54033 -0.438036,-0.43931 -0.655565,-0.49518 -1.080174,-0.2774 -0.729301,0.37406 -0.896723,1.17724 -0.375014,1.79906 0.427565,0.50962 1.016209,0.51688 1.512968,0.0187 z m 77.893197,-0.86091 c 0.42479,-0.5379 0.44559,-0.67496 0.12832,-0.84525 -0.34713,-0.18632 -0.59645,-0.15468 -0.98878,0.1255 -0.27137,0.1938 -0.35188,0.34669 -0.35188,0.66829 0,0.22935 0.0577,0.417 0.12831,0.417 0.0706,0 0.1007,0.0448 0.067,0.0995 -0.0337,0.0547 0.0997,0.0758 0.29654,0.0468 0.23147,-0.0341 0.48596,-0.21488 0.72052,-0.51191 z m -57.79103,-0.35633 c 0,-0.39703 -0.0522,-0.7542 -0.11591,-0.79372 -0.0637,-0.0395 -0.472651,-0.0352 -0.908661,0.01 l -0.79273,0.0815 v 0.71226 0.71226 h 0.90865 0.908651 z m 32.6457,-0.84932 c 0.0383,-0.0622 0.0143,-0.14746 -0.0534,-0.18944 -0.0677,-0.042 -0.12313,0.009 -0.12313,0.11312 0,0.21343 0.0727,0.24485 0.17656,0.0763 z m 0.44284,-0.28635 c -0.0989,-0.0992 -0.13478,-0.0856 -0.13478,0.0511 0,0.24154 0.16291,0.40493 0.22312,0.22378 0.0255,-0.0768 -0.0142,-0.20056 -0.0883,-0.27491 z m -0.25594,-0.40451 c 0,-0.0924 -0.0818,-0.16809 -0.18173,-0.16809 -0.1,0 -0.18173,0.0852 -0.18173,0.18943 0,0.11225 -0.057,0.15411 -0.13987,0.10274 -0.0822,-0.051 -0.10715,-0.0336 -0.0605,0.0422 0.10862,0.17625 0.56379,0.042 0.56379,-0.16625 z m 0.72692,0.19643 c 0,-0.0668 -0.0577,-0.1215 -0.1283,-0.1215 -0.0706,0 -0.0946,0.0547 -0.0534,0.1215 0.0412,0.0668 0.0989,0.12151 0.12831,0.12151 0.0294,0 0.0534,-0.0547 0.0534,-0.12151 z m -33.55952,-1.09356 v -0.85055 h -0.908651 -0.90865 v 0.76955 c 0,0.42325 0.0363,0.80599 0.0808,0.85054 0.0444,0.0446 0.45331,0.081 0.90865,0.081 h 0.827881 z m 32.97799,0.46173 c -0.0777,-0.078 -0.18157,-0.10142 -0.23073,-0.0521 -0.0491,0.0493 -0.0108,0.13837 0.0853,0.19793 0.0961,0.0596 0.19992,0.083 0.23072,0.0521 0.0308,-0.0309 -0.008,-0.11997 -0.0853,-0.19793 z m -0.56077,-0.0278 c 0.20022,-0.20081 0.22812,-0.43396 0.0519,-0.43396 -0.16911,0 -0.60108,0.45023 -0.5149,0.53666 0.11676,0.1171 0.2799,0.0809 0.46298,-0.1027 z m 1.1423,-0.0694 c 0,-0.0668 -0.0545,-0.12151 -0.12115,-0.12151 -0.0666,0 -0.12115,0.0547 -0.12115,0.12151 0,0.0668 0.0545,0.1215 0.12115,0.1215 0.0666,0 0.12115,-0.0547 0.12115,-0.1215 z m -1.46647,-0.35412 c 0.099,-0.0628 0.13606,-0.19372 0.0894,-0.31559 -0.0654,-0.17084 -0.11255,-0.18084 -0.26289,-0.0557 -0.23323,0.19413 -0.30775,0.11874 -0.21901,-0.22157 0.0874,-0.33529 0.47604,-0.35229 0.56149,-0.0246 0.0411,0.15762 0.12885,0.21836 0.24879,0.1722 0.10191,-0.0392 0.15576,-0.14849 0.11967,-0.24282 -0.0361,-0.0943 -0.11443,-0.14125 -0.17408,-0.10428 -0.0597,0.037 -0.10846,0.0115 -0.10846,-0.0566 0,-0.0681 -0.27603,-0.40508 -0.6134,-0.74881 -0.33736,-0.34374 -0.57824,-0.66023 -0.53528,-0.70331 0.043,-0.0431 0.14781,0.0173 0.233,0.13411 0.18988,0.26043 0.43106,0.27732 0.43106,0.0302 0,-0.10024 -0.0818,-0.18226 -0.18173,-0.18226 -0.0999,0 -0.18173,-0.082 -0.18173,-0.18226 0,-0.10024 0.0818,-0.18226 0.18173,-0.18226 0.1,0 0.18173,-0.082 0.18173,-0.18226 0,-0.24713 0.24084,-0.23023 0.43282,0.0304 0.11888,0.16139 0.19094,0.17874 0.29896,0.072 0.10864,-0.10735 0.0819,-0.17305 -0.113,-0.27766 -0.14042,-0.0754 -0.25532,-0.21714 -0.25532,-0.31503 0,-0.0979 -0.0545,-0.17798 -0.12115,-0.17798 -0.0666,0 -0.12115,-0.0852 -0.12115,-0.18943 0,-0.10419 0.0512,-0.15772 0.1137,-0.11896 0.0625,0.0388 0.15795,-0.007 0.21202,-0.10079 0.0541,-0.0942 0.20248,-0.19103 0.3298,-0.21519 0.20219,-0.0384 0.17535,-0.10187 -0.21202,-0.50178 -0.45368,-0.46837 -0.57381,-0.73898 -0.27741,-0.62491 0.30565,0.11763 0.31099,-0.27754 0.006,-0.44126 -0.29962,-0.16081 -0.40343,-0.48083 -0.15599,-0.48083 0.0755,0 0.23939,0.11812 0.36423,0.26249 0.12485,0.14437 0.26322,0.22617 0.30748,0.18178 0.0443,-0.0444 -0.0379,-0.20705 -0.1825,-0.36145 -0.28857,-0.30807 -0.33092,-0.44734 -0.13604,-0.44734 0.0698,0 0.25326,-0.1367 0.40764,-0.30377 0.15439,-0.16707 0.3426,-0.30377 0.41826,-0.30377 0.0757,0 0.13755,-0.082 0.13755,-0.18226 0,-0.10024 -0.0562,-0.18226 -0.12496,-0.18226 -0.0687,0 -0.15634,0.082 -0.19469,0.18226 -0.0384,0.10025 -0.14568,0.18226 -0.23851,0.18226 -0.0928,0 -0.16919,0.0684 -0.16971,0.15189 -5.2e-4,0.0835 -0.13993,0.21656 -0.30981,0.29561 -0.25156,0.11706 -0.32122,0.11143 -0.37547,-0.0304 -0.0366,-0.0958 -0.14578,-0.17411 -0.24254,-0.17411 -0.0968,0 -0.14291,-0.0536 -0.10257,-0.11902 0.0467,-0.0757 0.15371,-0.0687 0.29434,0.0194 0.17907,0.11216 0.27429,0.0886 0.50197,-0.12412 0.2696,-0.2519 0.27194,-0.26917 0.0578,-0.42624 -0.12277,-0.09 -0.18442,-0.22667 -0.13699,-0.30364 0.13055,-0.21185 0.27862,-0.16816 0.34935,0.10308 0.0348,0.13365 0.12299,0.24301 0.19586,0.24301 0.25255,0 0.12998,-0.23914 -0.38968,-0.76031 -0.28719,-0.28803 -0.55772,-0.61662 -0.60118,-0.73019 -0.0474,-0.12385 -0.15358,-0.1778 -0.26532,-0.13479 -0.10248,0.0394 -0.18632,0.017 -0.18632,-0.0498 0,-0.0668 0.0818,-0.15298 0.18173,-0.19145 0.1,-0.0385 0.18173,-0.0234 0.18173,0.0336 0,0.0569 0.11452,0.13356 0.2545,0.17027 0.13997,0.0367 0.21867,0.12487 0.1749,0.19591 -0.0438,0.071 0.0598,0.19286 0.23011,0.2707 0.17035,0.0778 0.30972,0.21477 0.30972,0.30428 0,0.0895 0.0818,0.16276 0.18173,0.16276 0.1,0 0.18173,0.082 0.18173,0.18226 0,0.18011 0.14158,0.24278 0.26617,0.11782 0.0353,-0.0354 -0.22817,-0.3721 -0.58558,-0.74815 -0.3574,-0.37604 -0.64982,-0.72979 -0.64982,-0.78611 0,-0.0563 -0.0618,-0.10239 -0.13723,-0.10239 -0.12769,0 -0.58969,-0.4539 -0.58969,-0.57935 0,-0.0309 0.13728,0.0341 0.30507,0.14433 0.26684,0.17535 0.31378,0.17768 0.37466,0.0186 0.0872,-0.22796 0.7423,-0.17679 3.19718,0.24973 0.9662,0.16787 1.94755,0.3292 2.18077,0.35851 l 0.42403,0.0533 -0.40032,-0.18633 c -0.84767,-0.39454 -4.19909,-1.17015 -6.80831,-1.57562 -3.40949,-0.52984 -6.0159,-0.77662 -9.23955,-0.87482 l -2.51553,-0.0766 0.0168,0.90002 c 0.009,0.49501 0.042,1.45388 0.0728,2.13081 l 0.0561,1.2308 0.85929,0.0849 c 3.70869,0.36651 7.2873,2.29893 10.13527,5.47294 0.37524,0.41819 0.67591,0.66428 0.70517,0.57715 0.0593,-0.17655 0.39429,-0.20749 0.39429,-0.0364 0,0.0635 -0.0901,0.16601 -0.20012,0.22779 -0.17502,0.0982 -0.13484,0.20564 0.32044,0.85658 0.55011,0.78652 0.57049,0.80195 0.83628,0.63317 z m -0.83544,-1.2141 c 0,-0.17181 0.0626,-0.21522 0.2423,-0.16808 0.13327,0.0349 0.24231,0.13919 0.24231,0.23163 0,0.0924 -0.10904,0.16809 -0.24231,0.16809 -0.15757,0 -0.2423,-0.081 -0.2423,-0.23164 z m -0.72693,-0.98343 c 0,-0.0668 0.0577,-0.1215 0.12831,-0.1215 0.0706,0 0.0946,0.0547 0.0534,0.1215 -0.0412,0.0668 -0.0989,0.12151 -0.12831,0.12151 -0.0294,0 -0.0534,-0.0547 -0.0534,-0.12151 z m 0.24231,-0.36452 c 0,-0.0668 0.0545,-0.1215 0.12116,-0.1215 0.0666,0 0.12115,0.0547 0.12115,0.1215 0,0.0668 -0.0545,0.12151 -0.12115,0.12151 -0.0666,0 -0.12116,-0.0547 -0.12116,-0.12151 z m 0.5149,-0.33253 c -0.21178,-0.0731 -0.18954,-0.275 0.0303,-0.275 0.0999,0 0.18173,-0.0729 0.18173,-0.16201 0,-0.0891 0.0818,-0.16201 0.18173,-0.16201 0.1,0 0.18173,0.0729 0.18173,0.16201 0,0.0891 -0.0778,0.16201 -0.17284,0.16201 -0.0951,0 -0.19048,0.0736 -0.21202,0.16361 -0.0216,0.09 -0.10732,0.14011 -0.19062,0.11139 z m -0.5149,-0.51801 c 0,-0.0668 0.0545,-0.12151 0.12116,-0.12151 0.0666,0 0.12115,0.0547 0.12115,0.12151 0,0.0668 -0.0545,0.1215 -0.12115,0.1215 -0.0666,0 -0.12116,-0.0547 -0.12116,-0.1215 z m -0.36346,-0.37169 c 0,-0.0708 0.0545,-0.0949 0.12115,-0.0536 0.0666,0.0413 0.12116,0.0992 0.12116,0.12867 0,0.0295 -0.0545,0.0536 -0.12116,0.0536 -0.0666,0 -0.12115,-0.0579 -0.12115,-0.12867 z m 0.7875,0.007 c 0.0412,-0.0668 0.12618,-0.12151 0.18888,-0.12151 0.0627,0 0.114,0.0547 0.114,0.12151 0,0.0668 -0.085,0.1215 -0.18888,0.1215 -0.10388,0 -0.15518,-0.0547 -0.114,-0.1215 z m -1.15096,-0.24302 c 0,-0.0668 0.0577,-0.12151 0.1283,-0.12151 0.0706,0 0.0946,0.0547 0.0534,0.12151 -0.0412,0.0668 -0.0989,0.12151 -0.1283,0.12151 -0.0294,0 -0.0534,-0.0547 -0.0534,-0.12151 z m 1.60529,0.041 c -0.21095,-0.0854 -0.18977,-0.28405 0.0303,-0.28405 0.1,0 0.18173,0.082 0.18173,0.18226 0,0.10025 -0.0136,0.17795 -0.0303,0.17267 -0.0167,-0.005 -0.0984,-0.0372 -0.18173,-0.0709 z m -0.87837,-0.16254 c 0,-0.0668 0.0513,-0.12151 0.11401,-0.12151 0.0627,0 0.14769,0.0547 0.18888,0.12151 0.0412,0.0668 -0.0101,0.12151 -0.11401,0.12151 -0.10388,0 -0.18888,-0.0547 -0.18888,-0.12151 z m 1.0601,-0.38453 c -0.38561,-0.43409 -0.39599,-0.46602 -0.15145,-0.46602 0.1,0 0.18173,0.0761 0.18173,0.16909 0,0.093 0.13438,0.20291 0.29861,0.24425 0.20027,0.0504 0.2758,0.13478 0.22935,0.25619 -0.0971,0.25372 -0.17842,0.22407 -0.55824,-0.20351 z m -0.69664,0.02 c 0,-0.0668 0.0818,-0.1215 0.18173,-0.1215 0.0999,0 0.18173,0.0547 0.18173,0.1215 0,0.0668 -0.0818,0.12151 -0.18173,0.12151 -0.1,0 -0.18173,-0.0547 -0.18173,-0.12151 z m -1.09038,-0.24305 c 0,-0.0668 0.0545,-0.12151 0.12115,-0.12151 0.0666,0 0.12116,0.0547 0.12116,0.12151 0,0.0668 -0.0545,0.1215 -0.12116,0.1215 -0.0666,0 -0.12115,-0.0547 -0.12115,-0.1215 z m 0.84808,-0.12151 c 0,-0.0668 0.0545,-0.12151 0.12115,-0.12151 0.0666,0 0.12115,0.0547 0.12115,0.12151 0,0.0668 -0.0545,0.12151 -0.12115,0.12151 -0.0666,0 -0.12115,-0.0547 -0.12115,-0.12151 z m -0.38618,-0.32602 c 0.0875,-0.0351 0.19195,-0.0308 0.23221,0.01 0.0403,0.0404 -0.0313,0.0691 -0.15901,0.0638 -0.14114,-0.006 -0.16985,-0.0346 -0.0732,-0.0734 z m 0.62848,-0.0385 c 0,-0.0668 0.0818,-0.1215 0.18173,-0.1215 0.0999,0 0.18173,0.0547 0.18173,0.1215 0,0.0668 -0.0818,0.12151 -0.18173,0.12151 -0.1,0 -0.18173,-0.0547 -0.18173,-0.12151 z m -0.36346,-0.36452 c 0,-0.0668 0.0513,-0.1215 0.11401,-0.1215 0.0627,0 0.14769,0.0547 0.18888,0.1215 0.0412,0.0668 -0.0101,0.12151 -0.11401,0.12151 -0.10388,0 -0.18888,-0.0547 -0.18888,-0.12151 z m 0.72692,-0.0607 c 0,-0.10024 0.0818,-0.18226 0.18173,-0.18226 0.1,0 0.18173,0.082 0.18173,0.18226 0,0.10024 -0.0818,0.18226 -0.18173,0.18226 -0.0999,0 -0.18173,-0.082 -0.18173,-0.18226 z m -0.36346,-0.36452 c 0,-0.10024 0.0545,-0.18226 0.12116,-0.18226 0.0666,0 0.12115,0.082 0.12115,0.18226 0,0.10024 -0.0545,0.18226 -0.12115,0.18226 -0.0666,0 -0.12116,-0.082 -0.12116,-0.18226 z m 0.42028,-0.30987 c -0.11512,-0.18681 0.0426,-0.30735 0.19807,-0.15139 0.087,0.0873 0.0891,0.15522 0.006,0.20652 -0.0678,0.0421 -0.15983,0.0172 -0.20442,-0.0551 z m -0.78374,-0.1154 c 0,-0.0668 0.0545,-0.12151 0.12116,-0.12151 0.0666,0 0.12115,0.0547 0.12115,0.12151 0,0.0668 -0.0545,0.1215 -0.12115,0.1215 -0.0666,0 -0.12116,-0.0547 -0.12116,-0.1215 z m -0.72692,-0.48603 c 0,-0.0668 0.0545,-0.12151 0.12115,-0.12151 0.0666,0 0.12116,0.0547 0.12116,0.12151 0,0.0668 -0.0545,0.12151 -0.12116,0.12151 -0.0666,0 -0.12115,-0.0547 -0.12115,-0.12151 z m 0.95439,-0.25523 c 0.15024,-0.14038 0.30647,-0.22183 0.34718,-0.18101 0.0407,0.0408 -0.0311,0.15394 -0.15945,0.25137 -0.35669,0.27064 -0.49657,0.21821 -0.18773,-0.0704 z m 0.89068,-0.25358 c 0.0749,-0.2253 0.33569,-0.26267 0.33569,-0.0481 0,0.10581 -0.0863,0.19239 -0.19182,0.19239 -0.10551,0 -0.17025,-0.0649 -0.14387,-0.14429 z m -1.84507,-0.22023 c 0,-0.0668 0.0545,-0.12151 0.12115,-0.12151 0.0666,0 0.12116,0.0547 0.12116,0.12151 0,0.0668 -0.0545,0.12151 -0.12116,0.12151 -0.0666,0 -0.12115,-0.0547 -0.12115,-0.12151 z m 0.85764,-0.0709 c 0.006,-0.14155 0.0345,-0.17034 0.0732,-0.0734 0.035,0.0877 0.0307,0.19251 -0.01,0.23289 -0.0403,0.0404 -0.0689,-0.0314 -0.0636,-0.15948 z m 0.5962,0.0101 c 0,-0.10024 0.0885,-0.18226 0.19657,-0.18226 0.16099,0 0.16926,0.033 0.0457,0.18226 -0.0829,0.10024 -0.17141,0.18226 -0.19656,0.18226 -0.0252,0 -0.0457,-0.082 -0.0457,-0.18226 z m -1.0298,-0.30377 c -0.0412,-0.0668 0.0101,-0.1215 0.114,-0.1215 0.10389,0 0.18888,0.0547 0.18888,0.1215 0,0.0668 -0.0513,0.12151 -0.114,0.12151 -0.0627,0 -0.1477,-0.0547 -0.18888,-0.12151 z m 0.62775,-0.16567 c -0.23019,-0.35233 -0.16865,-0.42405 0.11756,-0.13701 0.10055,0.10084 0.16232,0.245 0.13727,0.32036 -0.025,0.0754 -0.13972,-0.007 -0.25483,-0.18335 z m 0.80062,0.0442 c -0.0349,-0.13365 -0.13879,-0.24301 -0.23097,-0.24301 -0.0922,0 -0.1676,-0.082 -0.1676,-0.18226 0,-0.10024 0.0346,-0.18226 0.077,-0.18226 0.11642,0 0.64994,0.60359 0.64994,0.7353 0,0.21809 -0.26507,0.11495 -0.32835,-0.12777 z m -1.91299,-0.24301 c 0.0412,-0.0668 0.12618,-0.12151 0.18888,-0.12151 0.0627,0 0.11401,0.0547 0.11401,0.12151 0,0.0668 -0.085,0.12151 -0.18888,0.12151 -0.10389,0 -0.15519,-0.0547 -0.11401,-0.12151 z m 0.50481,-0.32402 c -0.14716,-0.14759 -0.0837,-0.27702 0.10096,-0.20595 0.1,0.0385 0.18173,0.11877 0.18173,0.17845 0,0.12739 -0.1669,0.14363 -0.28269,0.0275 z m 0.525,-0.28351 c 0,-0.0668 0.0513,-0.12151 0.114,-0.12151 0.0627,0 0.1477,0.0547 0.18888,0.12151 0.0412,0.0668 -0.0101,0.1215 -0.114,0.1215 -0.10388,0 -0.18888,-0.0547 -0.18888,-0.1215 z m -0.55232,-0.78593 c -0.12935,-0.0981 -0.17371,-0.18014 -0.0986,-0.18226 0.0751,-0.002 0.20448,0.0781 0.28743,0.17839 0.19152,0.23144 0.11325,0.23304 -0.18886,0.004 z m 0.52543,-0.11715 c -0.17686,-0.24408 -0.18292,-0.30929 -0.0398,-0.4284 0.13615,-0.11332 0.15704,-0.0954 0.10799,0.0927 -0.0373,0.14306 0.0132,0.26169 0.13069,0.3069 0.10532,0.0405 0.19149,0.13009 0.19149,0.19902 0,0.2084 -0.16958,0.13445 -0.39035,-0.17022 z m 2.93457,9.89458 c 0,-0.0668 -0.0545,-0.12151 -0.12115,-0.12151 -0.0666,0 -0.12115,0.0547 -0.12115,0.12151 0,0.0668 0.0545,0.12151 0.12115,0.12151 0.0666,0 0.12115,-0.0547 0.12115,-0.12151 z m -0.98068,-0.3468 c -0.17905,-0.0617 -0.27001,0.0634 -0.16726,0.23018 0.0651,0.10571 0.11426,0.0999 0.18998,-0.0223 0.06,-0.0968 0.0506,-0.18261 -0.0227,-0.20789 z m -47.81187,-0.10852 c -0.07683,-0.20079 -0.06348,-0.20064 0.24611,0.003 0.180038,0.11831 0.327342,0.15917 0.327342,0.0908 0,-0.0684 0.05774,-0.12431 0.128304,-0.12431 0.07057,0 0.09461,0.0547 0.05343,0.12151 -0.04118,0.0668 0.0089,0.12151 0.11121,0.12151 0.476883,0 0.688234,-1.06518 0.303582,-1.53001 -0.41926,-0.50665 -1.250679,-0.397 -1.573249,0.20748 -0.175673,0.32921 -0.04247,1.03799 0.224389,1.19402 0.273973,0.16019 0.272504,0.16088 0.178885,-0.0838 z m 48.30794,-0.0307 c 0,-0.0668 -0.0577,-0.12151 -0.1283,-0.12151 -0.0706,0 -0.0946,0.0547 -0.0534,0.12151 0.0412,0.0668 0.0989,0.12151 0.1283,0.12151 0.0294,0 0.0534,-0.0547 0.0534,-0.12151 z m 17.44611,-0.007 c 0,-0.0708 0.0549,-0.0947 0.12201,-0.053 0.0671,0.0416 0.15525,-0.0113 0.19588,-0.11744 0.061,-0.1594 0.10714,-0.16603 0.2647,-0.0381 0.15706,0.12755 0.17325,0.1257 0.0915,-0.0105 -0.0547,-0.091 -0.0502,-0.20036 0.01,-0.24301 0.1211,-0.086 0.52762,-0.70177 0.52762,-0.79919 0,-0.14739 -0.75985,-0.43856 -0.96996,-0.37168 -0.12701,0.0404 -0.37337,0.24327 -0.54745,0.45077 -0.32246,0.38434 -0.33415,0.79437 -0.033,1.15828 0.154,0.18609 0.33889,0.19912 0.33889,0.0239 z m 1.28076,-0.0449 c 0.0952,-0.0955 0.16925,-0.30051 0.16456,-0.45565 -0.008,-0.26593 -0.0145,-0.26816 -0.11263,-0.0391 -0.0984,0.22958 -0.1046,0.2275 -0.11264,-0.0376 -0.005,-0.15431 -0.0609,-0.24806 -0.12504,-0.20833 -0.0713,0.0442 -0.0747,0.18248 -0.009,0.35626 0.0705,0.18588 0.0605,0.33136 -0.0289,0.42097 -0.0751,0.0753 -0.0945,0.13694 -0.0431,0.13694 0.0514,0 0.17134,-0.0781 0.26653,-0.17359 z m -19.09033,-0.30527 c 0,-0.0629 -0.0545,-0.14813 -0.12115,-0.18944 -0.0666,-0.0413 -0.12116,0.0102 -0.12116,0.11434 0,0.10419 0.0545,0.18943 0.12116,0.18943 0.0666,0 0.12115,-0.0514 0.12115,-0.11433 z m -0.34476,-0.52305 c -0.13874,-0.13915 -0.41759,-0.004 -0.31968,0.15444 0.0365,0.0593 0.15013,0.0756 0.25243,0.0362 0.12147,-0.0468 0.1448,-0.11289 0.0673,-0.19066 z m 0.58707,-0.0917 c 0,-0.0668 -0.0545,-0.12151 -0.12116,-0.12151 -0.0666,0 -0.12115,0.0547 -0.12115,0.12151 0,0.0668 0.0545,0.12151 0.12115,0.12151 0.0666,0 0.12116,-0.0547 0.12116,-0.12151 z m -0.94425,-0.286 c -0.0204,-0.11474 0.0442,-0.20003 0.15144,-0.20003 0.26419,0 0.23344,-0.11126 -0.12209,-0.44172 -0.35546,-0.33039 -0.53895,-0.36616 -0.53895,-0.10506 0,0.10029 0.10727,0.18226 0.23851,0.18226 0.16223,0 0.2162,0.0583 0.16877,0.18226 -0.0384,0.10025 -0.14569,0.18226 -0.23851,0.18226 -0.20868,0 -0.2133,0.0811 -0.0173,0.30394 0.19262,0.21899 0.40466,0.15747 0.35815,-0.10391 z m 1.67117,0.23242 c 0,-0.0295 -0.0545,-0.0874 -0.12116,-0.12868 -0.0666,-0.0413 -0.12115,-0.0172 -0.12115,0.0536 0,0.0708 0.0545,0.12868 0.12115,0.12868 0.0666,0 0.12116,-0.0241 0.12116,-0.0536 z m -34.04414,-0.85053 c 0,-0.43044 -0.0561,-0.81738 -0.12459,-0.85985 -0.0685,-0.0425 -0.477421,-0.0393 -0.908651,0.007 l -0.78406,0.0842 v 0.70755 0.70755 l 0.45432,0.0477 c 0.24988,0.0262 0.65877,0.0568 0.90865,0.0681 l 0.454331,0.0204 z m 33.07491,0.60753 c 0,-0.0295 -0.0545,-0.0874 -0.12115,-0.12867 -0.0666,-0.0413 -0.12116,-0.0172 -0.12116,0.0536 0,0.0708 0.0545,0.12867 0.12116,0.12867 0.0666,0 0.12115,-0.0241 0.12115,-0.0536 z m 0.24231,-0.43244 c 0,-0.0668 -0.0241,-0.12151 -0.0534,-0.12151 -0.0294,0 -0.0871,0.0547 -0.1283,0.12151 -0.0412,0.0668 -0.0171,0.12151 0.0534,0.12151 0.0706,0 0.12831,-0.0547 0.12831,-0.12151 z m -0.24231,-0.36452 c 0,-0.0668 -0.0818,-0.12151 -0.18173,-0.12151 -0.0999,0 -0.18173,0.0547 -0.18173,0.12151 0,0.0668 0.0818,0.1215 0.18173,0.1215 0.1,0 0.18173,-0.0547 0.18173,-0.1215 z m 0.33065,-0.31643 c -0.0403,-0.0404 -0.14476,-0.0447 -0.23221,-0.01 -0.0967,0.0388 -0.0679,0.0676 0.0732,0.0734 0.12772,0.005 0.19928,-0.0234 0.15902,-0.0638 z m -0.40799,-0.35186 c -0.0384,-0.10024 -0.1489,-0.18226 -0.24566,-0.18226 -0.0968,0 -0.14575,-0.0489 -0.10888,-0.10877 0.0369,-0.0598 -0.0144,-0.14013 -0.11401,-0.17845 -0.24479,-0.0942 -0.22865,0.1134 0.031,0.3986 0.2557,0.28087 0.53523,0.32615 0.43756,0.0709 z m -51.874212,-0.31042 c 0.193202,-0.25964 0.208948,-0.36856 0.09626,-0.66581 -0.0741,-0.19547 -0.199466,-0.39668 -0.27859,-0.44714 -0.187433,-0.11953 -5.170397,-0.1237 -5.176049,-0.004 -0.0024,0.0501 -0.07947,0.40654 -0.171325,0.79205 l -0.167009,0.70092 2.732864,-0.0326 2.732864,-0.0326 z m 52.315012,0.007 c 0,-0.0668 -0.0545,-0.12151 -0.12115,-0.12151 -0.0666,0 -0.12116,0.0547 -0.12116,0.12151 0,0.0668 0.0545,0.12151 0.12116,0.12151 0.0666,0 0.12115,-0.0547 0.12115,-0.12151 z m -0.36346,-0.36452 c 0,-0.0668 -0.0818,-0.12151 -0.18173,-0.12151 -0.0999,0 -0.18173,0.0547 -0.18173,0.12151 0,0.0668 0.0818,0.12151 0.18173,0.12151 0.1,0 0.18173,-0.0547 0.18173,-0.12151 z m -33.07491,-0.9721 v -0.85055 h -0.908651 -0.90865 v 0.76954 c 0,0.42325 0.0363,0.806 0.0808,0.85055 0.0444,0.0446 0.45331,0.081 0.90865,0.081 h 0.827881 z m 33.31722,0.48603 c 0,-0.0668 -0.0241,-0.12151 -0.0534,-0.12151 -0.0294,0 -0.0871,0.0547 -0.1283,0.12151 -0.0412,0.0668 -0.0171,0.1215 0.0534,0.1215 0.0706,0 0.12831,-0.0547 0.12831,-0.1215 z m 0.66634,-0.12151 c 0.0412,-0.0668 0.0171,-0.12151 -0.0534,-0.12151 -0.0706,0 -0.1283,0.0547 -0.1283,0.12151 0,0.0668 0.024,0.12151 0.0534,0.12151 0.0294,0 0.0871,-0.0547 0.1283,-0.12151 z m -0.90865,-0.24301 c 0,-0.0668 -0.0545,-0.12151 -0.12115,-0.12151 -0.0666,0 -0.12116,0.0547 -0.12116,0.12151 0,0.0668 0.0545,0.1215 0.12116,0.1215 0.0666,0 0.12115,-0.0547 0.12115,-0.1215 z m -0.38668,-0.25213 c -0.0239,-0.0718 -0.0952,-0.13062 -0.15851,-0.13062 -0.0633,0 -0.13463,0.0588 -0.15851,0.13062 -0.0239,0.0718 0.0474,0.13062 0.15851,0.13062 0.11106,0 0.18238,-0.0588 0.15851,-0.13062 z m 0.75014,-0.11957 c 0,-0.0629 -0.0545,-0.11433 -0.12115,-0.11433 -0.0666,0 -0.12116,0.0852 -0.12116,0.18943 0,0.10419 0.0545,0.15564 0.12116,0.11434 0.0666,-0.0413 0.12115,-0.12655 0.12115,-0.18944 z m -0.36346,-0.4181 c 0,-0.10024 0.0909,-0.18226 0.20192,-0.18226 0.11106,0 0.1655,-0.0365 0.12097,-0.0812 -0.11087,-0.11119 -0.69384,0.21375 -0.61449,0.34252 0.10378,0.16841 0.2916,0.11748 0.2916,-0.0791 z m -0.0707,-0.71165 c -0.081,-0.21182 -0.41393,-0.27952 -0.41393,-0.0842 0,0.11352 0.38941,0.38504 0.45617,0.31808 0.0188,-0.0188 -2.2e-4,-0.12409 -0.0422,-0.2339 z m 0.79761,0.16487 c 0,-0.0668 -0.0545,-0.12151 -0.12115,-0.12151 -0.0666,0 -0.12116,0.0547 -0.12116,0.12151 0,0.0668 0.0545,0.12151 0.12116,0.12151 0.0666,0 0.12115,-0.0547 0.12115,-0.12151 z m -0.48461,-0.48603 c -0.0713,-0.13365 -0.18228,-0.24301 -0.24657,-0.24301 -0.15806,0 -0.147,0.0975 0.0346,0.30427 0.22514,0.25646 0.36066,0.2173 0.21202,-0.0613 z m -33.31721,-0.79511 v -0.79512 l -0.878361,0.0357 -0.87837,0.0357 -0.0361,0.75942 -0.0361,0.75941 h 0.91444 0.914431 z m 33.6201,-0.29845 c 0.0412,-0.0668 0.0171,-0.1215 -0.0534,-0.1215 -0.0706,0 -0.1283,0.0547 -0.1283,0.1215 0,0.0668 0.024,0.12151 0.0534,0.12151 0.0294,0 0.0871,-0.0547 0.1283,-0.12151 z m 0.66634,-0.1215 c 0,-0.0668 -0.0577,-0.12151 -0.1283,-0.12151 -0.0706,0 -0.0946,0.0547 -0.0534,0.12151 0.0412,0.0668 0.0989,0.1215 0.12831,0.1215 0.0294,0 0.0534,-0.0547 0.0534,-0.1215 z m -0.42403,-0.48603 c 0.0412,-0.0668 -0.0101,-0.12151 -0.11401,-0.12151 -0.10388,0 -0.18888,0.0547 -0.18888,0.12151 0,0.0668 0.0513,0.1215 0.11401,0.1215 0.0627,0 0.14769,-0.0547 0.18888,-0.1215 z m 0.78749,0.0679 c 0,-0.0295 -0.0545,-0.0874 -0.12115,-0.12868 -0.0666,-0.0413 -0.12115,-0.0172 -0.12115,0.0536 0,0.0708 0.0545,0.12868 0.12115,0.12868 0.0666,0 0.12115,-0.0241 0.12115,-0.0536 z m 17.0396,-0.3218 c 0.5214,-0.32319 0.64882,-0.56924 0.64882,-1.25292 0,-0.46795 -0.0641,-0.61498 -0.42635,-0.97831 -0.53092,-0.53247 -0.93037,-0.63956 -1.56493,-0.41953 -0.39754,0.13785 -0.54695,0.28106 -0.77576,0.74362 -0.2472,0.4997 -0.2656,0.62698 -0.14405,0.99635 0.0766,0.23291 0.32874,0.59024 0.56021,0.79407 0.51023,0.44929 1.10023,0.48975 1.70206,0.11672 z m -18.12998,-0.23215 c 0,-0.0668 -0.10904,-0.12151 -0.2423,-0.12151 -0.13327,0 -0.24231,-0.0522 -0.24231,-0.11598 0,-0.0638 -0.1363,-0.25268 -0.30288,-0.41975 -0.16659,-0.16708 -0.30289,-0.36094 -0.30289,-0.4308 0,-0.15074 -0.20172,-0.16969 -0.28953,-0.0272 -0.0338,0.0549 0.0311,0.18716 0.1443,0.29389 0.11319,0.10674 0.36482,0.36254 0.55917,0.56846 0.34768,0.36837 0.67644,0.49127 0.67644,0.25288 z m -41.797961,-0.73721 c 0,-0.10845 -0.10904,-0.29615 -0.24231,-0.4171 -0.23932,-0.21722 -0.2423,-0.21223 -0.2423,0.40525 0,0.61353 0.005,0.6213 0.2423,0.4171 0.13327,-0.11444 0.24231,-0.2968 0.24231,-0.40525 z m 42.205241,0.43344 c -0.076,-0.19858 -0.28612,-0.25063 -0.28612,-0.0709 0,0.0922 0.0849,0.15501 0.32937,0.24355 0.0146,0.005 -0.005,-0.0724 -0.0433,-0.17267 z m 11.10231,-0.60753 c 0,-0.43439 -0.0227,-0.78979 -0.0504,-0.78979 -0.0277,0 -0.22249,0.21792 -0.43283,0.48427 l -0.38243,0.48427 0.34196,0.30168 c 0.18808,0.16593 0.38286,0.30341 0.43283,0.30552 0.05,0.002 0.0909,-0.35156 0.0909,-0.78595 z m 14.12508,0.2425 c -0.0419,-0.16735 -0.27012,-0.71413 -0.5072,-1.21507 l -0.43106,-0.91079 -0.92948,4.5e-4 c -0.51122,2.4e-4 -1.69559,0.0356 -2.63194,0.0786 l -1.70245,0.0781 0.24018,0.48687 c 0.1321,0.26778 0.26436,0.77921 0.2939,1.13651 l 0.0537,0.64964 h 2.84524 2.84524 z m -25.99858,-0.24298 c -0.29733,-0.31741 -0.48416,-0.38756 -0.48416,-0.18178 0,0.0668 0.0818,0.12151 0.18173,0.12151 0.1,0 0.18173,0.0775 0.18173,0.17213 0,0.0947 0.0682,0.19655 0.15144,0.22638 0.27071,0.097 0.2593,-0.0286 -0.0307,-0.33824 z m -39.912501,-0.47615 c 0.23778,-0.17479 0.25202,-0.3993 0.18382,-2.89892 l -0.009,-0.33788 -0.69664,0.44204 c -0.88606,0.56224 -1.36297,1.01093 -1.36297,1.28233 0,0.24524 1.28541,1.68529 1.50431,1.68529 0.08,0 0.25135,-0.0778 0.3807,-0.17286 z m 50.877551,-0.72527 c 0.53882,-0.52985 0.76635,-0.83782 0.71608,-0.96921 -0.1085,-0.28357 -1.74156,-1.41334 -2.04296,-1.41334 -0.0911,0 -0.0847,2.72735 0.007,2.96698 0.13932,0.36411 0.53229,0.19011 1.31993,-0.58443 z M 95.429149,103.8572 c 0.0407,-1.62457 0.0107,-1.76314 -0.33461,-1.54686 -0.22426,0.14047 -0.24505,0.27953 -0.24505,1.63918 v 1.48569 l 0.27259,-0.1009 c 0.25772,-0.0954 0.27448,-0.17603 0.30707,-1.47711 z m 46.734651,-1.4277 c -0.17446,-0.17496 -0.24553,0.22843 -0.23905,1.35668 0.0108,1.88264 0.22756,2.05387 0.26933,0.21278 0.0188,-0.82766 0.005,-1.53392 -0.0303,-1.56946 z m -44.912951,2.10703 c 0.30908,-0.0681 0.37686,-0.15085 0.43306,-0.52878 0.0367,-0.24643 0.0272,-0.97751 -0.0209,-1.62462 l -0.0876,-1.17655 -0.57548,0.25037 -0.57548,0.25036 v 1.68561 c 0,1.65547 0.004,1.68148 0.22998,1.45496 0.12648,-0.12685 0.39486,-0.26696 0.59639,-0.31135 z m 43.636971,-1.1366 v -1.55708 l -0.41604,-0.19897 -0.41604,-0.19898 -0.0766,0.63212 c -0.0421,0.34767 -0.0594,1.04189 -0.0383,1.54272 0.0382,0.90651 0.0402,0.91154 0.46236,1.11811 0.23322,0.11412 0.43767,0.21012 0.45433,0.21333 0.0166,0.003 0.0303,-0.69485 0.0303,-1.55125 z m -1.8173,-0.80041 v -1.50695 l -0.38154,-0.13339 c -0.20985,-0.0734 -0.40066,-0.13339 -0.42404,-0.13339 -0.0234,0 -0.0425,0.68076 -0.0425,1.51279 0,1.60093 0.0552,1.75407 0.63605,1.7642 0.19073,0.003 0.21202,-0.14767 0.21202,-1.50326 z m -39.01417,1.09546 c 0.98914,-0.26836 1.0301,-0.29355 1.10935,-0.68216 0.0453,-0.22193 0.0465,-0.96196 0.003,-1.6445 l -0.0795,-1.24099 -1.241821,0.36529 -1.24182,0.3653 v 1.56352 c 0,1.81305 -0.12693,1.70166 1.451101,1.27354 z m -14.414532,-0.17919 c 0,-0.0576 0.242966,-0.0489 0.539924,0.0193 0.628316,0.1442 0.851435,0.0216 1.116042,-0.61327 0.301486,-0.72336 -0.2262,-1.49937 -1.144872,-1.68364 -0.329988,-0.0662 -0.44574,-0.0162 -0.811454,0.3506 -0.344542,0.34555 -0.426561,0.52045 -0.426561,0.9096 0,0.30343 0.09296,0.60032 0.2511,0.80195 0.247817,0.31596 0.475821,0.41923 0.475821,0.2155 z m 51.611402,-1.46922 v -1.57388 l -0.45433,-0.12654 c -0.24988,-0.0696 -0.59072,-0.12685 -0.75743,-0.12722 l -0.30311,-6.8e-4 2.3e-4,1.54269 2.2e-4,1.54269 0.60577,0.14397 c 0.33317,0.0792 0.67391,0.15047 0.75721,0.15841 0.1141,0.0109 0.15144,-0.37365 0.15144,-1.55944 z m -58.576697,1.30993 c 0.0857,-0.0863 -0.824043,-1.39393 -1.145123,-1.64593 -0.122806,-0.0964 -0.678418,-0.14936 -1.592705,-0.15188 -1.388675,-0.004 -1.405653,-4.6e-4 -1.544708,0.30562 -0.298406,0.65684 -0.04787,1.18899 0.707537,1.50282 0.325669,0.13531 3.439309,0.12604 3.574999,-0.0106 z m 86.521047,0.0148 c 0.71791,-0.23763 0.9017,-1.11259 0.32866,-1.56466 -0.29898,-0.23586 -0.47416,-0.25184 -2.76195,-0.25184 h -2.44272 l -0.4298,0.45565 c -0.37033,0.39259 -0.95365,1.23961 -0.95128,1.3813 0.002,0.12272 5.88261,0.1035 6.25709,-0.0204 z m -62.71522,-0.35841 c 0.58583,0 0.60558,-0.0561 0.60558,-1.71961 v -1.572094 l -0.45433,0.0822 c -0.24988,0.0452 -0.49521,0.1056 -0.54519,0.13418 -0.11363,0.065 -0.12076,2.855784 -0.008,3.150354 0.0504,0.13175 0.10176,0.15941 0.13125,0.0707 0.0266,-0.0802 0.14847,-0.14574 0.27074,-0.14574 z m 32.46895,-1.57983 c 0,-1.25926 -0.0338,-1.579594 -0.16658,-1.579594 -0.0916,0 -0.33865,-0.0345 -0.54893,-0.0767 l -0.38235,-0.0767 0.034,1.564134 0.034,1.56413 0.36346,0.0778 c 0.1999,0.0428 0.43161,0.0842 0.5149,0.0922 0.11412,0.0108 0.15144,-0.37488 0.15144,-1.56521 z m -30.13694,1.15932 0.33318,-0.0704 v -1.5928 -1.592804 l -0.51128,0.082 c -0.28119,0.0451 -0.55296,0.14777 -0.60391,0.22816 -0.10565,0.16671 -0.13185,2.925484 -0.0288,3.028874 0.0663,0.0665 0.13762,0.0592 0.81077,-0.083 z m 28.12221,-1.19411 c 0.0443,-0.68742 0.0455,-1.425574 0.003,-1.640344 -0.0734,-0.36824 -0.10806,-0.39049 -0.60791,-0.39049 h -0.53005 v 1.516524 1.51652 l 0.33317,0.0737 c 0.18325,0.0405 0.38769,0.0919 0.45433,0.11423 0.0666,0.0223 0.15401,0.0448 0.19417,0.0501 0.0402,0.005 0.10928,-0.55284 0.15359,-1.24026 z m -25.48712,0.77472 0.42404,-0.0822 0.0337,-1.58279 0.0336,-1.582784 -0.99328,0.12998 -0.99328,0.12997 0.001,0.42528 c 7.9e-4,0.2339 0.0101,0.953184 0.0207,1.598404 l 0.0192,1.17313 0.51491,-0.0634 c 0.28319,-0.0349 0.70572,-0.10039 0.93894,-0.1456 z m 23.5514,-0.0816 c 0.12684,-0.33151 0.0825,-2.825554 -0.0517,-2.908734 -0.0689,-0.0427 -0.53227,-0.10848 -1.0298,-0.14622 l -0.90461,-0.0686 v 1.528934 1.52893 l 0.5149,0.0672 c 0.2832,0.037 0.67846,0.0868 0.87836,0.11074 0.19991,0.0239 0.39852,0.0517 0.44137,0.0617 0.0428,0.01 0.11099,-0.0683 0.15144,-0.17399 z m -20.22892,-0.29217 c 0.72789,-0.0677 1.42301,-0.12315 1.54471,-0.12315 0.2029,0 0.22126,-0.13107 0.22126,-1.57958 0,-1.182734 -0.038,-1.579574 -0.15144,-1.579494 -0.2898,1.9e-4 -2.81983,0.24328 -3.27115,0.31429 l -0.45432,0.0715 v 1.376714 c 0,1.64306 0.0345,1.7688 0.46528,1.69676 0.17722,-0.0296 0.91777,-0.1093 1.64566,-0.17703 z m 17.48934,-1.4261 c 0.0334,-1.460174 0.0293,-1.486224 -0.24231,-1.545004 -0.29716,-0.0643 -3.05889,-0.31122 -3.48104,-0.31122 -0.24814,0 -0.25441,0.0438 -0.22146,1.549214 l 0.0339,1.54921 1.27211,0.0896 c 0.69966,0.0493 1.35389,0.11254 1.45384,0.14057 0.0999,0.028 0.39981,0.0424 0.66635,0.0319 l 0.48461,-0.0191 z m -10.75607,0.97298 c 0.0333,-0.0298 0.0788,-0.70585 0.10101,-1.502414 l 0.0404,-1.4483 h -1.9387 c -1.06628,0 -2.02493,0.0332 -2.13033,0.0737 -0.16054,0.0618 -0.19164,0.31905 -0.19164,1.585224 v 1.51146 l 2.02932,-0.0828 c 1.11613,-0.0455 2.05658,-0.10716 2.0899,-0.13692 z m 5.90985,-1.34074 -0.0339,-1.549224 -2.03307,-0.0333 -2.03308,-0.0333 0.034,1.49142 0.034,1.491414 1.51442,0.0665 c 0.83293,0.0366 1.74776,0.0776 2.03294,0.0911 l 0.51853,0.0246 z m -26.384801,0.40451 0.7875,-0.29012 -0.01,-0.808054 c -0.0144,-1.16841 -0.19126,-1.31526 -1.66161,-1.37976 -1.12352,-0.0493 -1.13379,-0.0471 -1.5402,0.32517 -0.22503,0.20612 -0.38496,0.4011 -0.35541,0.43327 0.12737,0.13868 1.97622,2.013454 1.98381,2.011624 0.005,-0.001 0.36275,-0.13257 0.79588,-0.29213 z m 45.674881,-1.668144 c 0,-0.0466 -0.17369,-0.25882 -0.38597,-0.47173 l -0.38597,-0.38709 -1.20367,0.0485 c -1.49557,0.0602 -1.659,0.19505 -1.659,1.36837 0,0.744504 0.006,0.757964 0.39375,0.889294 0.21656,0.0733 0.61183,0.21553 0.87836,0.31597 l 0.48462,0.18261 0.93894,-0.930644 c 0.51641,-0.51185 0.93894,-0.96872 0.93894,-1.01527 z m -70.685846,1.542994 c 0.25431,-0.389264 0.187123,-0.684494 -0.206153,-0.905874 -0.285308,-0.16061 -0.351243,-0.1576 -0.635198,0.029 -0.363083,0.23859 -0.410464,0.626504 -0.116337,0.952464 0.283846,0.31456 0.725573,0.27969 0.957688,-0.0756 z m 94.089226,0.0967 c 0.30123,-0.27341 0.27887,-0.716924 -0.0477,-0.946334 -0.34474,-0.24217 -0.56534,-0.23904 -0.84187,0.0119 -0.27119,0.24614 -0.28124,0.50992 -0.0329,0.865434 0.22333,0.31978 0.614,0.34898 0.92253,0.069 z M 93.496849,97.390576 c 0.37,-0.18428 0.66051,-0.75609 0.55746,-1.09726 -0.26249,-0.86899 -1.23869,-1.10791 -1.79885,-0.44025 -0.17251,0.20561 -0.31366,0.49418 -0.31366,0.64125 0,0.25787 0.29214,0.7875 0.52082,0.9442 0.18511,0.12685 0.73439,0.10139 1.03423,-0.0479 z m 49.988281,-0.17988 c -0.055,-0.25288 -0.0421,-0.29006 0.0532,-0.1529 0.10027,0.14434 0.15653,0.15053 0.27633,0.0304 0.17419,-0.17469 0.51368,-0.20596 0.41003,-0.0378 -0.0383,0.0622 -0.006,0.15268 0.0722,0.20103 0.0886,0.0549 0.10939,0.0353 0.0554,-0.0524 -0.0476,-0.0772 -0.037,-0.14028 0.0233,-0.14028 0.0604,0 0.17369,-0.12302 0.25178,-0.27339 0.13816,-0.26602 0.14076,-0.26448 0.0966,0.0571 -0.025,0.18176 0.001,0.30156 0.0583,0.26622 0.15678,-0.0972 0.12411,-0.70824 -0.0478,-0.89398 -0.12115,-0.1309 -0.12115,-0.14648 0,-0.0779 0.2376,0.13454 0.17755,-0.0673 -0.11199,-0.37641 -0.40293,-0.43015 -1.07937,-0.38789 -1.48253,0.0926 -0.17251,0.20562 -0.31365,0.50215 -0.31365,0.65897 0,0.24203 0.5202,1.03281 0.67942,1.03281 0.0287,0 0.0194,-0.15037 -0.0206,-0.33415 z m -65.846915,-0.85994 c 0.958117,-0.51534 1.124771,-1.80215 0.32821,-2.53427 -0.765052,-0.70317 -1.61783,-0.69165 -2.249941,0.0304 -0.448957,0.51282 -0.489039,1.07161 -0.130192,1.81505 0.399144,0.82693 1.2587,1.11548 2.051923,0.68883 z m 83.700565,0.0522 c 1.07808,-0.55912 1.24821,-1.98904 0.32104,-2.69829 -1.13011,-0.86449 -2.59897,-0.15456 -2.59897,1.25614 0,1.13442 1.29296,1.95299 2.27793,1.44215 z m -60.11794,-2.68506 c 0.40897,-0.62599 -0.15595,-1.64087 -0.91337,-1.64087 -0.410911,0 -0.854151,0.52935 -0.854151,1.02011 0,0.57495 0.15863,0.63158 0.695921,0.24846 0.25027,-0.17846 0.32633,-0.20883 0.16902,-0.0675 -0.31461,0.28268 -0.29262,0.30903 0.12669,0.15184 0.15427,-0.0578 0.38952,-0.0617 0.52279,-0.009 l 0.24231,0.0966 -0.24231,0.0104 c -0.20216,0.009 -0.21219,0.0302 -0.0606,0.13005 0.16154,0.10635 0.16154,0.13294 0,0.23929 -0.11703,0.077 -0.12881,0.12031 -0.0331,0.12151 0.0818,10e-4 0.2378,-0.13459 0.34676,-0.30137 z m 35.95585,-0.52641 c 0.0581,-0.50056 -0.42937,-1.11446 -0.88496,-1.11446 -0.47882,0 -0.97697,0.53141 -0.97697,1.0422 0,0.4595 0.17274,0.62504 0.42935,0.41146 0.13008,-0.10827 0.17642,-0.1099 0.17642,-0.006 0,0.10141 0.0654,0.10557 0.23434,0.0149 0.28891,-0.15507 0.85604,-0.16544 0.85604,-0.0156 0,0.0606 -0.11756,0.0793 -0.26125,0.0416 -0.18084,-0.0474 -0.2342,-0.0246 -0.17336,0.0741 0.0483,0.0784 0.13865,0.11117 0.20068,0.0727 0.062,-0.0385 0.11444,0.002 0.11646,0.0891 0.006,0.2763 0.23835,-0.22309 0.28325,-0.60984 z m -0.65039,-0.0209 c 0.1,-0.0648 0.23625,-0.11779 0.30288,-0.11779 0.0666,0 0.0394,0.053 -0.0606,0.11779 -0.0999,0.0648 -0.23625,0.11778 -0.30288,0.11778 -0.0666,0 -0.0394,-0.053 0.0606,-0.11778 z m -52.571312,-2.90682 c 0.647551,-0.64944 0.398331,-1.7043 -0.489827,-2.07326 -0.974092,-0.40465 -1.809306,0.78702 -1.276221,1.82089 0.368033,0.71378 1.189007,0.83109 1.766048,0.25237 z m 70.507592,0.19943 c 0.29693,-0.23467 0.60021,-0.72827 0.60021,-0.97687 0,-0.44125 -0.39988,-1.07586 -0.79786,-1.26619 -0.33804,-0.16167 -0.45312,-0.16593 -0.78278,-0.029 -0.40413,0.16788 -0.84121,0.75324 -0.84198,1.12763 -5.9e-4,0.28518 0.34733,0.95589 0.59364,1.14441 0.2494,0.19088 0.98725,0.19088 1.22877,0 z m -39.35774,-1.47052 c 0.069,0.0428 0.17312,0.002 0.23128,-0.0896 0.0836,-0.13243 0.10614,-0.12298 0.10761,0.0452 0.003,0.31381 0.55134,0.27356 0.78248,-0.0574 l 0.1886,-0.27005 0.1886,0.27005 c 0.21384,0.30618 0.44627,0.34544 0.64234,0.1085 0.0808,-0.0977 0.28366,-0.13948 0.51287,-0.10574 0.23762,0.035 0.4165,-0.005 0.47914,-0.10639 0.0654,-0.1061 0.29122,-0.1504 0.65292,-0.1281 0.33484,0.0206 0.55297,-0.0174 0.55297,-0.0966 0,-0.0719 0.21807,-0.13068 0.48461,-0.13068 0.33274,0 0.48462,-0.0529 0.48462,-0.16874 0,-0.0985 0.18737,-0.20399 0.4502,-0.25344 0.24761,-0.0466 0.5233,-0.18937 0.61264,-0.31729 0.0893,-0.12792 0.26838,-0.23258 0.39787,-0.23258 0.12949,0 0.23544,-0.0547 0.23544,-0.12151 0,-0.0668 0.0842,-0.12151 0.18722,-0.12151 0.15025,0 0.17091,-0.09 0.10463,-0.45565 -0.31759,-1.75224 -2.09634,-3.18955 -3.94724,-3.18955 -1.0256,0 -1.562,0.19081 -2.37124,0.84351 -1.51644,1.22309 -2.10317,3.2759 -1.33479,4.67007 0.12631,0.22918 0.14718,0.23408 0.18694,0.0439 0.0246,-0.11777 0.10125,-0.17911 0.17029,-0.13632 z m 2.49879,-0.40085 c 0.0875,-0.0351 0.19195,-0.0308 0.23221,0.01 0.0403,0.0404 -0.0313,0.0691 -0.15901,0.0638 -0.14114,-0.006 -0.16984,-0.0346 -0.0732,-0.0734 z m 1.33269,-0.1215 c 0.0875,-0.0351 0.19195,-0.0308 0.23221,0.01 0.0403,0.0404 -0.0313,0.0691 -0.15902,0.0638 -0.14113,-0.006 -0.16984,-0.0346 -0.0732,-0.0734 z m 25.3774,0.68323 c 0.43871,-0.12219 1.29909,-0.7622 1.29909,-0.96636 0,-0.10949 -1.26973,-0.96172 -2.32723,-1.56201 -0.65708,-0.37299 -0.70645,-0.38291 -0.98727,-0.19837 -0.99457,0.65356 -0.45861,2.35904 0.85067,2.70693 0.62361,0.1657 0.63991,0.16598 1.16474,0.0198 z m -59.104593,-2.61377 c 0.367176,-0.36825 0.09686,-0.83625 -0.439003,-0.76007 -0.320922,0.0456 -0.444638,0.4957 -0.213153,0.77543 0.18864,0.22796 0.414851,0.22263 0.652156,-0.0154 z m 67.308133,0.0103 c 0.0857,-0.10363 0.11693,-0.3109 0.0731,-0.48603 -0.12633,-0.50482 -0.91987,-0.34895 -0.91987,0.18068 0,0.44225 0.56491,0.64596 0.84677,0.30535 z m -61.479161,-1.20051 c 1.65633,-0.77353 2.24404,-2.83599 1.23575,-4.33656 -1.30222,-1.93801 -4.233362,-1.83966 -5.278048,0.17709 -0.513317,0.99095 -0.347315,2.51683 0.365372,3.35845 0.263669,0.31137 0.984067,0.80669 1.37006,0.94201 0.653673,0.22916 1.643876,0.16864 2.306866,-0.14099 z m 57.058361,-3.47912 c -0.0412,-0.0668 -0.1294,-0.1215 -0.19603,-0.1215 -0.0666,0 -0.0875,0.0547 -0.0463,0.1215 0.0412,0.0668 0.1294,0.12151 0.19603,0.12151 0.0666,0 0.0875,-0.0547 0.0463,-0.12151 z m 0.3848,-0.0488 c -0.0453,-0.11827 0.0615,-0.19415 0.3495,-0.24833 0.22807,-0.0429 0.44991,-0.071 0.49298,-0.0623 0.16719,0.0335 0.26508,-0.31229 0.22243,-0.78572 -0.11339,-1.25855 -1.69415,-1.42901 -2.19106,-0.23627 -0.14602,0.35051 -0.14628,0.46766 -0.002,0.81442 0.14313,0.34355 0.22971,0.40502 0.57038,0.40502 0.2209,0 0.42284,0.0638 0.44875,0.14176 0.0259,0.078 0.0757,0.14176 0.11056,0.14176 0.0349,0 0.0341,-0.0766 -0.002,-0.17031 z m -0.23538,-0.33078 c 0.0822,-0.083 0.17994,-0.12038 0.21725,-0.083 0.0373,0.0374 -0.0299,0.10535 -0.14943,0.15098 -0.17267,0.0659 -0.18658,0.052 -0.0678,-0.068 z m -8.0244,-0.10849 c 1.08226,-0.48522 1.63557,-1.33492 1.63557,-2.51169 0,-0.86272 -0.13028,-1.23363 -0.67606,-1.92472 -0.85898,-1.08768 -2.384,-1.44504 -3.64796,-0.85484 -2.24652,1.04902 -2.00206,4.42427 0.38653,5.33661 0.92888,0.3548 1.43148,0.34489 2.30192,-0.0454 z m -40.894141,-0.31818 c 0.42456,-0.25153 0.731751,-0.76777 0.731751,-1.22975 0,-0.49458 -0.459541,-1.14022 -1.001121,-1.40656 -0.43892,-0.21585 -0.46634,-0.21585 -0.89923,0 -0.58291,0.29066 -0.91041,0.75535 -0.91041,1.29176 0,1.12375 1.17215,1.88181 2.07901,1.34455 z m 9.838251,-3.75517 c 2.06703,-0.70636 2.13139,-3.67322 0.10304,-4.74935 -1.17552,-0.62367 -2.74186,-0.10134 -3.28355,1.09497 -0.59967,1.32438 -0.0163,2.94069 1.28264,3.55343 0.70937,0.33464 1.14607,0.35786 1.89787,0.10095 z m 19.42515,-1.16475 c 0.53308,-0.0667 1.05101,-0.12538 1.15096,-0.13031 0.1,-0.005 0.24988,-0.0629 0.33317,-0.12878 0.10536,-0.0834 0.15444,-0.0691 0.16128,0.0469 0.014,0.23684 0.34156,-0.51334 0.34816,-0.79731 0.0101,-0.43522 -0.48909,-1.27015 -0.91861,-1.53638 -0.86068,-0.53348 -2.26757,-0.2193 -2.75314,0.61482 -0.48875,0.83958 -0.17806,2.32285 0.44665,2.13236 0.14426,-0.044 0.69846,-0.13459 1.23153,-0.20134 z"
         id="path25" /></g><rect
       style="fill:#ffffff;stroke:#ffffff;stroke-width:1;stroke-linecap:round;stroke-linejoin:round;stroke-miterlimit:3.8;paint-order:stroke fill markers"
       id="rect63"
       width="3.9792933"
       height="7.9585867"
       x="47.751522"
       y="40.878197"
       ry="0.36175397" /></g></svg>
